<svg id="eyes1" xmlns="http://www.w3.org/2000/svg" viewBox="0 0 4000 4000">
  <path d="M1776.74,2519.43c-13.37,34.47-45.74,59.1-83.15,59.24-54.32.22-104.79-45.17-105.42-94.82-.62-48.85,45.17-95.49,93.75-95.49,47.1,0,89.91,35.25,99.41,78.25H1834c-.37-2.85-.8-5.7-1.29-8.57-14.57-85.69-68.16-145-147.66-157.22a284.45,284.45,0,0,0-45.31-3.42c-71.86.48-134,30.43-185.15,87.43-28,31.24-43.54,69-45,111.29-4.06,117.85,80.81,203.78,200.55,205.35,5.12-.78,10.27-1.47,15.42-2.15,14.76-1.94,29.56-3.75,44-7.17,93.81-22.29,155.08-89.1,165-172.72Z" fill="none"/>
  <path d="M2299.37,2286.3c-79-6.36-191.36,63.92-202.48,180.31h62.05c8.31-42.71,48.37-78.33,91.56-78.09,53.53.3,102.39,46.31,102,96-.43,51.54-42.32,94.44-91.89,94.12-40.73-.26-78.15-25.53-94.52-59.24h-67c16.41,90.89,96.9,163.5,187.29,163.53q6.54,0,13-.44h0c104.14-7,194.32-97.19,194.64-197.93C2494.34,2382.11,2396.06,2280,2299.37,2286.3Z" fill="none"/>
  <g id="shell">
    <path d="M2134.39,2447.83l30.07.77-5.52,18h-62.05c11.12-116.39,123.49-186.67,202.48-180.31C2173.22,2313.77,2134.39,2447.83,2134.39,2447.83Z" fill="none"/>
    <path d="M2099,2519.43c16.41,90.89,96.9,163.5,187.29,163.53q6.54,0,13-.44" fill="none"/>
    <path d="M2299.36,2682.52q-6.49.43-13,.44c-90.39,0-170.88-72.64-187.29-163.53h31.65S2141.65,2636.09,2299.36,2682.52Z" fill="none"/>
    <path d="M2257,2578.67l40.76-.7a35.92,35.92,0,0,0,10.92-1.87c16.33-5.53,60.15-25.75,62.58-86.93,3.13-78.78-70.37-97.89-70.37-97.89s-20.15-4.89-40.25-2.16c19,4.05,44.18,5.42,77.51,48.56,23.2,35.84,14,68.31.34,95.9S2289.87,2579,2257,2578.67Z" fill="none"/>
    <path d="M1625.58,2699.32c-5.15.68-10.3,1.37-15.42,2.15-119.74-1.57-204.61-87.5-200.55-205.35,1.45-42.3,17-80,45-111.29,51.14-57,113.29-86.95,185.15-87.43-2.88.89-188.55,58.86-184.66,208.73C1459,2657.17,1625.58,2699.32,1625.58,2699.32Z" fill="none"/>
    <path d="M1829.45,2442s-5.75-.79-34.71,0c-31.31-77.48-129-51.9-129-51.9s88.1-14.62,115.6,76.55H1834Z" fill="none"/>
    <path d="M1689.48,2578.67s74.35,8.85,99-59.24h-11.74s-8.08,25.35-30.65,41.05S1713.74,2577.25,1689.48,2578.67Z" fill="none"/>
  </g>
</svg>
