<svg id="eyes2" xmlns="http://www.w3.org/2000/svg" viewBox="0 0 4000 4000">
  <path d="M2462.14,2706.39l-416.43-28.64,202-439.65,34.74,75.86h0c56,122.21,111.3,243.08,167.4,365.59Q2456,2693,2462.14,2706.39Z" fill="none"/>
  <path d="M1878.56,2677.71l-416.42,28.71,214.4-468.32q15.64,34,31.2,67.88h0l158.78,345.51Q1872.52,2664.58,1878.56,2677.71Z" fill="none"/>
  <g id="shell">
    <path d="M1878.56,2677.71l-416.42,28.71,214.4-468.32q15.64,34,31.2,67.88h0l-156.43,362.14,315.21-16.63Q1872.52,2664.58,1878.56,2677.71Z" fill="none"/>
    <path d="M2462.14,2706.39l-416.43-28.64,202-439.65,34.74,75.86h0L2118.85,2654l331,25.52Q2456,2693,2462.14,2706.39Z" fill="none"/>
  </g>
</svg>
