<svg id="eyes3" xmlns="http://www.w3.org/2000/svg" viewBox="0 0 4000 4000">
  <path d="M2406.41,2720.54h0c-12.9,49.61-46.36,93.32-92.55,115.95-69.36,34-152.86,19.91-206.91-35-42.32-43-63.88-96.59-73.4-154.42-10.19-61.9-15.77-124.57-23.13-184.92,4.85-38.46,8.75-74.27,14.22-109.83,1.66-10.78,6.78-21.36,11.85-31.25,14.83-28.92,39-40.89,67.9-33.17a83.78,83.78,0,0,1,12,4.23c14,6.1,28.44,14.29,38.8,25.2,69,72.64,138.07,145.26,204.66,220.07,28.34,31.83,45,71.33,50.87,114.55A177.81,177.81,0,0,1,2406.41,2720.54Z" fill="none"/>
  <path d="M1860.79,2763.18a293.81,293.81,0,0,1-16.58,25.27c-34.06,46.34-79.3,75.87-142.23,76.28-87.49.58-166.67-70.46-183.06-162.55-15.52-87.2,9.17-164.9,61.83-233,39.55-51.15,82.9-99.73,128-146.15,26-26.8,55.2-38.23,83.38-35.3l.4.05c27.5,3,54,19.65,75.66,49.07,21.5,29.22,29.53,62.84,32.25,98,2.83,36.64,4.56,73.37,6.07,98.44C1907.87,2621.17,1900.5,2695.65,1860.79,2763.18Z" fill="none"/>
  <g id="shell">
    <path d="M1844.21,2788.45c-34.06,46.34-79.3,75.87-142.23,76.28-87.49.58-166.67-70.46-183.06-162.55-15.52-87.2,9.17-164.9,61.83-233,39.55-51.15,82.9-99.73,128-146.15,26-26.8,55.2-38.23,83.38-35.3l.4.05s-155.15,164.26-190.94,252c-30,73.57-34,158.39,15.43,212.24S1705.85,2814.48,1844.21,2788.45Z" fill="none"/>
    <path d="M2406.41,2720.55c-12.9,49.61-46.36,93.32-92.55,115.95-69.36,34-152.86,19.91-206.91-35-42.32-43-63.88-96.59-73.4-154.42-10.19-61.9-15.77-124.57-23.13-184.92,4.85-38.46,8.75-74.27,14.22-109.83,1.66-10.78,6.78-21.36,11.85-31.25,14.83-28.92,39-40.89,67.9-33.17-12.8,19.41-106.7,176.36,10.75,439.66C2225.68,2907.58,2406.41,2720.55,2406.41,2720.55Z" fill="none"/>
  </g>
</svg>
