<svg id="eyes4" xmlns="http://www.w3.org/2000/svg" viewBox="0 0 4000 4000">
  <path d="M2750.79,2512.53c.56,75.3-24.87,135.59-71.63,176.45h0c-33.18,29-77.11,48.24-130.09,56.1-120.32,17.84-230.27-13.35-332.72-73.54-47-27.6-90.24-61.49-135.18-92.53l3-6.43q28.59-7.42,56.33-16.13h0c216.69-68,394-194.85,534.1-379.31,1.67,2,3.57,3.37,4.31,5.23C2721,2288.47,2749.94,2397.75,2750.79,2512.53Z" fill="none"/>
  <path d="M1922.78,2573c-40.88,40.62-80.06,83.17-123,121.44-48.84,43.51-102.17,79.78-161.74,103.19a410.45,410.45,0,0,1-86.15,23.57c-122.41,19.43-229.56-9.19-307.62-111.86-35.54-46.74-50.31-101.7-54.52-160.28-6.93-96.37,18.31-184.82,61.62-269.42,1.94-3.79,4.36-7.33,7.4-12.39q23.7,25.74,48.38,49.25C1476.91,2478.32,1681,2561.09,1920,2567.6Z" fill="none"/>
  <g id="shell">
    <path d="M1638,2797.62a410.45,410.45,0,0,1-86.15,23.57c-122.41,19.43-229.56-9.19-307.62-111.86-35.54-46.74-50.31-101.7-54.52-160.28-6.93-96.37,18.31-184.82,61.62-269.42,1.94-3.79,4.36-7.33,7.4-12.39q23.7,25.74,48.38,49.25S1061.85,2803.44,1638,2797.62Z" fill="none"/>
    <path d="M2679.15,2689c-33.18,29-77.11,48.24-130.09,56.1-120.32,17.84-230.27-13.35-332.72-73.54-47-27.6-90.24-61.49-135.18-92.53l3-6.43q28.59-7.42,56.33-16.13h0S2391.21,2781.82,2679.15,2689Z" fill="none"/>
  </g>
</svg>
