<svg id="eyes5" xmlns="http://www.w3.org/2000/svg" viewBox="0 0 4000 4000">
  <path d="M1882.88,2674.25a177.39,177.39,0,0,1-24,43.59c-30,39.49-74.49,58.87-128.52,64.48-9.25,1-18.68.13-28,.13-115.86-5.62-214.62-48.36-286.92-140.91-59.93-76.71-63.35-159.9-15.47-244.39A352.83,352.83,0,0,1,1440,2341c22.23-25.73,53.15-35.76,81.49-29.86,19.26,4,37.33,15.35,50.67,34.12,31,43.57,56.89,90.7,86.73,135.13,20.07,29.88,41.19,59.5,65.27,86.16,31.74,35.13,72.19,53.82,121.15,52.59C1879.16,2618.32,1895.17,2642.6,1882.88,2674.25Z" fill="none"/>
  <path d="M2554.33,2560.29c-11,38.93-33.68,76.84-69,112-71.44,71.08-159,107.36-253.35,111.4-80.54-1.69-142.51-24.65-178-95.18a135.38,135.38,0,0,1-9.91-26.1c-6.28-23.85,7.86-47.08,32.19-46.19,80.49,3,129.66-43.78,169.76-104.17,28.92-43.54,54.44-89.32,82-133.78,10.15-16.39,20.85-32.61,32.95-47.59,31.2-38.6,88.26-42.49,122-6C2550.45,2397.32,2576.74,2480.91,2554.33,2560.29Z" fill="none"/>
  <g id="shell">
    <path d="M1858.87,2717.84c-30,39.49-74.49,58.87-128.52,64.48-9.25,1-18.68.13-28,.13-115.86-5.62-214.62-48.36-286.92-140.91-59.93-76.71-63.35-159.9-15.47-244.39A352.83,352.83,0,0,1,1440,2341c22.23-25.73,53.15-35.76,81.49-29.86-16.5,11.42-110.37,81.89-99.11,200.44,12.34,129.91,143.82,194.81,143.82,194.81S1684.19,2788.56,1858.87,2717.84Z" fill="none"/>
    <path d="M2554.33,2560.29c-11,38.93-33.68,76.84-69,112-71.44,71.08-159,107.36-253.35,111.4-80.54-1.69-142.51-24.65-178-95.18a135.38,135.38,0,0,1-9.91-26.1c-6.28-23.85,7.86-47.08,32.19-46.19,0,0,42.8,126.09,137,128.29S2454.63,2709.1,2554.33,2560.29Z" fill="none"/>
  </g>
</svg>
