<svg id="eyes6" xmlns="http://www.w3.org/2000/svg" viewBox="0 0 4000 4000">
  <path d="M1820.2,2604.22l-53.1-3.23-21.65-1.32-24.71-1.51c2.35-67.55-23.51-116-93.91-125.33l-.46-.06c-17.33-2.24-32.87-.7-47,4.71h0c-30.1,11.53-53.7,40.66-74.1,88.27q-3.43,8-6.75,16.72l-94.87-6.73c2.94-23.71,4.67-46.78,8.81-69.4,11.31-61.79,37.14-116.31,83.22-160.28,42.27-40.33,101-62.68,157.77-57.51h0c61.51,5.6,120.72,43.48,154.29,125.79C1832.63,2475.35,1831.78,2538.08,1820.2,2604.22Z" fill="none"/>
  <path d="M2514.41,2650.18,2434,2645l-40.76-2.61c-2.08-35.33-2.82-68.16-6.33-100.7-2.55-23.61-12.83-44.81-29.93-62.12-16-16.18-35.26-24.1-54.63-23.77-20.3.32-40.72,9.7-57.57,28.08-31.47,34.32-39.2,77.73-45.07,121.65-.17,1.28-.31,2.57-.44,3.87-.59,5.92-.81,12.2-1.4,20.18l-93.08-6.08c-4.7-83.79-6.14-165.48,37-240.06,46.63-80.67,115.38-106.15,179.8-95.65h0c43.44,7.08,84.9,30.52,116.27,64.44,50.31,54.39,70.7,121.66,76.11,193.71C2516.51,2579.65,2514.41,2613.68,2514.41,2650.18Z" fill="none"/>
  <g id="shell">
    <path d="M1439.43,2559.35l65.83,6.41q-3.43,8-6.75,16.72l-94.87-6.73c2.94-23.71,4.67-46.78,8.81-69.4,11.31-61.79,37.14-116.31,83.22-160.28,42.27-40.33,101-62.68,157.77-57.51C1460.1,2299.5,1439.43,2559.35,1439.43,2559.35Z" fill="none"/>
    <path d="M2133,2599.67l66.34,9.76c-.59,5.92-.81,12.2-1.4,20.18l-93.08-6.08c-4.7-83.79-6.14-165.48,37-240.06,46.63-80.67,115.38-106.15,179.8-95.65C2117.48,2292.56,2133,2599.67,2133,2599.67Z" fill="none"/>
    <path d="M2434,2645l-40.76-2.61c-2.08-35.33-2.82-68.16-6.33-100.7-2.55-23.61-12.83-44.81-29.93-62.12-16-16.18-35.26-24.1-54.63-23.77h0s68.36-13.57,109.88,53.18C2434,2553.61,2434,2645,2434,2645Z" fill="none"/>
    <path d="M1767.1,2601l-21.65-1.32-24.71-1.51c2.35-67.55-23.51-116-93.91-125.33l-.46-.06c-17.33-2.24-32.87-.7-47,4.71,1.44-.82,46.1-25.89,104.23-11.65C1742.7,2480.3,1764.1,2548.32,1767.1,2601Z" fill="none"/>
  </g>
</svg>
