<svg id="mouth3" xmlns="http://www.w3.org/2000/svg" viewBox="0 0 4000 4000">
  <path d="M2633,3148.45l-202.23,91.33c1.43,8.35,2.71,16.87,3.55,25.53a.13.13,0,0,1,0,.06c1.9,19.4,1.64,39.51-4,60h0s0,0,0,0q-.45,1.65-1,3.3c-.17.56-.34,1.11-.52,1.67-.35,1.11-.72,2.23-1.11,3.34-.2.56-.39,1.12-.6,1.68q-1.1,3-2.37,6.05c-.26.63-.53,1.26-.81,1.88s-.63,1.42-.95,2.12h0c-.35.74-.7,1.49-1.06,2.23-.22.47-.45.94-.68,1.41-.51,1-1,2.07-1.58,3.1q-21.34-48.71-42.64-97.33l-163.6,38.44c-2.2,28.35-4.42,57.09-6.66,85.92l-.4,5.22h0l-1.83,23.62-10.24,1.56c-13.1-35-26.2-70.05-40.23-107.59l-120.62,11.05h-.06c-.53,19.2-1.27,38.31-3,57.41a397.12,397.12,0,0,1-9.87,60.66s0,0,0,.06a300.22,300.22,0,0,1-12.61,39.17c-28-50.07-36.62-103-45.43-154.93l-151.9-6.55h-.2l-17.8,64.36-4.38,15.83L1780,3389c-6.83-24.91-13.26-49.94-20.81-74.63-1.64-5.39-6.66-12.89-11.22-13.76-44-8.45-88.15-15.69-131-23l-15.43,63.1-5.85,23.94-6.13-.37a133.92,133.92,0,0,1-24.23-70c-1.52-25.63-12.54-35-36.7-43-65.07-21.37-128.6-47.41-192.74-71.64l-1-.37,1.2-3.58c.33-1,.67-2,1-3l223.09,43.4,21.11-68.29,7.25-.24,3.12,9.55h0c5.76,17.72,11.42,35.48,17.67,53,1.77,4.95,5.76,12.41,9.48,12.88,43.17,5.52,86.49,9.92,130.37,14.69,2.67-30,5.13-57.62,7.58-85.21a108.58,108.58,0,0,1,15.11,15.24c13.79,16.94,21.2,36.47,26.34,56.83,3.2,12.71,8.65,17.34,21.37,17.21,45.36-.44,90.72-.17,134.78-.17q8.8-69.83,17.59-139.53h7a238.62,238.62,0,0,1,12.15,21.74c18.11,36.7,27,77,35.38,118.79l122.53-8.16,10-81,7.32-2c2,4.5,4,9,6,13.51h0c9,20.41,18.28,41.25,28.6,64.56l164.34-24.16c-2.06-26.85-4-51.89-6.32-82.47,3.3,2.32,6.39,4.71,9.31,7.15,22.39,18.7,34.5,40.83,48.12,65.24l215.67-52.48c.75,1.7,1.5,3.39,2.24,5.09Z" fill="none"/>
  <g id="shell">
    <path d="M1584,3278.2c3.08,36.36,17.56,62.41,17.56,62.41l-5.85,23.94-6.13-.37a133.92,133.92,0,0,1-24.23-70c-1.52-25.63-12.54-35-36.7-43-65.07-21.37-128.6-47.41-192.74-71.64l.22-3.95,213.56,58.68S1580.91,3241.85,1584,3278.2Z" fill="none"/>
    <path d="M1776.74,3309.09a639.16,639.16,0,0,0,15.75,64.2l-4.38,15.83L1780,3389c-6.83-24.91-13.26-49.94-20.81-74.63-1.64-5.39-6.66-12.89-11.22-13.76-44-8.45-88.15-15.69-131-23l29.63-20.62,97.19,15.94S1770.48,3275.43,1776.74,3309.09Z" fill="none"/>
    <path d="M1984.62,3286.44s13.41,122.19,35.81,144.81a300.22,300.22,0,0,1-12.61,39.17c-28-50.07-36.62-103-45.43-154.93l-151.9-6.55,7.86-28.09Z" fill="none"/>
    <path d="M2165.7,3274.91l40.6,109.55h0l-1.83,23.62-10.24,1.56c-13.1-35-26.2-70.05-40.23-107.59l-120.62,11.05c-.44-10.21-1.63-19.44-3.86-26.9C2059.26,3286.21,2165.7,3274.91,2165.7,3274.91Z" fill="none"/>
    <path d="M2430.23,3325.43l0,0a133.5,133.5,0,0,1-10.65,26.82q-21.34-48.71-42.64-97.33l-163.6,38.44c-2.2,28.35-4.42,57.09-6.66,85.92l8.75-115.24s121.14-19.23,172.91-36.51C2394.22,3244.65,2430.23,3325.43,2430.23,3325.43Z" fill="none"/>
    <path d="M2430.73,3239.78c1.43,8.35,2.71,16.87,3.55,25.53a298.62,298.62,0,0,0-9.35-47.53c13-3.6,149.94-43.52,208-69.33Z" fill="none"/>
    <path d="M1591.7,3157h0l-14,54.74-17.48,4.23,21.11-68.29,7.25-.24Z" fill="none"/>
    <path d="M1771.91,3167.67l-5.87,64.46-16.82,5.51c2.67-30,5.13-57.62,7.58-85.21A108.58,108.58,0,0,1,1771.91,3167.67Z" fill="none"/>
    <path d="M1991.12,3123.74l-15.34,110.48-21.38,7.32q8.8-69.83,17.59-139.53h7A238.62,238.62,0,0,1,1991.12,3123.74Z" fill="none"/>
    <path d="M2172.36,3164.9h0l-9.79,62.58-13.54,6.88,10-81,7.32-2C2168.37,3155.89,2170.37,3160.38,2172.36,3164.9Z" fill="none"/>
    <path d="M2375.43,3199.52l-10.13,5.79c-2.06-26.85-4-51.89-6.32-82.47,3.3,2.32,6.39,4.71,9.31,7.15Z" fill="none"/>
  </g>
</svg>
