<svg id="mouth2" xmlns="http://www.w3.org/2000/svg" viewBox="0 0 4000 4000">
  <path d="M2795,2994.42c-2.7,3.95-5.14,8.12-8.15,11.82-52.56,64.85-113.57,120.66-182.05,168.22-11.46,8-18.48,15.19-13.75,30.11,2.18,6.89,1.66,14.85,1.25,22.26s-2.18,14.7-4.1,26.67l-45.75-36.93c-28,14.51-57.38,29.25-86.11,45.09-3.78,2.08-5.67,9.68-6.29,15-2,17.07-3,34.27-4.35,51.42l-6.05,2.34c-10.61-11.64-20.86-23.65-32-34.71-3.64-3.6-10.69-7.78-14.51-6.55-36,11.64-71.72,24.39-106.7,36.54-1.06,24.2-2.12,48.07-3.17,71.94l-7.1,2.87c-11.92-16.67-25-32.66-35.32-50.28-5.91-10.08-11.67-12-22.24-10.14-30.65,5.42-61.39,10.61-92.28,14.32-11.1,1.34-14,5.35-15.65,15.76-3.47,22.21-9,44.09-13.67,66.11l-8.68.95c-8.8-20.76-18.89-41.11-25.9-62.46-3.92-11.93-8.89-15-20.93-14.58-27.94,1.08-56,.35-82.62.35-10.89,36.32-21.7,72.35-32.5,108.38l-6.78-.53c-21.2-34.65-25.44-74.37-30.92-114.41l-111.72-20.25-35.9,56.61-7.08-1.46c-3.13-19.34-5.91-38.74-9.64-58-1-5.13-3.8-12.63-7.63-14.06-32-11.95-64.43-22.74-95.5-33.45l-52.29,67.44-6.69-2.55c-4.37-23.37-4.76-47.19.54-70.59,3.46-15.25.09-22.81-14.49-29.87-29-14-56.66-30.8-85.65-46.87-20.83,27.12-40.71,54.87-71.49,71.07l-6.47-2.47c8.44-34.44,16.88-68.88,25.62-104.5l-82.84-67.52L1250.91,3155l-7.45-5.75c14.66-29.49,29.32-59,44.41-89.33l-78.32-93.16.8-.78,2.2-2.17,94.57,73.41,75.35-55.46,3.29,2.84,3.51,3-37.83,79.8,87.13,52.78,60.78-58.23,4.31,2.13,3.26,1.61-14.77,82.78c30.37,13.08,63.12,27.5,96.3,40.88a3.58,3.58,0,0,0,2.38-.09h.05c3.18-1,7.6-4.61,10.11-7.36,11.19-12.26,21.7-25.14,32.47-37.78l4.57,1,1.93.43c.76,16,2.89,32.17,1.86,48.1-.8,12.48,3.18,17.67,14.85,20.84,27.48,7.48,54.63,16.17,81,24.11,12.4-19.46,23.61-37,34.81-54.63l1.39.18,4.84.64c4.3,20.77,8.61,41.54,13.6,65.63l98.15,16.19,32.83-97.56a174.23,174.23,0,0,1,9.9,16.53c11.55,21.92,16.4,43,18.91,64.17,2.24,18.9,9.35,23.89,26.95,22.94,23.59-1.27,47.3-.31,71-.31l17.8-66.51,5.69-.87.32-.05c8.05,17.1,17.14,33.81,23.76,51.45,3.76,10,8.06,13.94,18.75,12.5,29.6-4,59.3-7.29,92-11.22v-81.14l5.88-2.22,1.44-.54,50.08,72.84,108.43-29.21c1.67-23.25,3.2-44.65,4.73-66.05L2384,3149l1.14-.54,45,49.72c24.67-10.34,52.17-21.31,79-33.81a3.33,3.33,0,0,0,1.24-1.06l0,0c2.34-3.07,2.91-10.87,3-16,.53-18.81.2-37.65.2-56.49l4.27-2.4.86-.48,51.45,47.61C2648,3096.37,2722,3047.43,2795,2994.42Z" fill="none"/>
  <g id="shell">
    <path d="M2517.9,3088.43v68.44l-7.52,6.42c2.34-3.07,2.91-10.87,3-16,.53-18.81.2-37.65.2-56.49Z" fill="none"/>
    <path d="M2384,3149v62.76l-9.78,5.7c1.67-23.25,3.2-44.65,4.73-66.05Z" fill="none"/>
    <path d="M2218.13,3249.61l-9.7,8.12v-81.14l5.88-2.22Z" fill="none"/>
    <path d="M2073.55,3205.05l-16.63,61.61-6.86,5.77,17.8-66.51Z" fill="none"/>
    <path d="M1385.76,2984.63l-69.46,52.89-9.18-.27,75.35-55.46Z" fill="none"/>
    <path d="M1503.66,3064.14l-55.88,56.1h-9.21l60.78-58.23Z" fill="none"/>
    <path d="M1638,3145.17l-28.38,43.41-18.77.73c3.18-1,7.6-4.61,10.11-7.36,11.19-12.26,21.7-25.14,32.47-37.78Z" fill="none"/>
    <path d="M1776.8,3184.58l-27.45,53.29-11.63.78c12.4-19.46,23.61-37,34.81-54.63Z" fill="none"/>
    <path d="M1929.74,3179.3,1903,3263.17l-12.49,3.49,32.83-97.56A92.65,92.65,0,0,1,1929.74,3179.3Z" fill="none"/>
    <path d="M2795,2994.42c-2.7,3.95-5.14,8.12-8.15,11.82-52.56,64.85-113.57,120.66-182.05,168.22-11.46,8-18.48,15.19-13.75,30.11,2.18,6.89,1.66,14.85,1.25,22.26s-2.18,14.7-4.1,26.67l-45.75-36.93c-28,14.51-57.38,29.25-86.11,45.09-3.78,2.08-5.67,9.68-6.29,15-2,17.07-3,34.27-4.35,51.42l-6.05,2.34c-10.61-11.64-20.86-23.65-32-34.71-3.64-3.6-10.69-7.78-14.51-6.55-36,11.64-71.72,24.39-106.7,36.54-1.06,24.2-2.12,48.07-3.17,71.94l-7.1,2.87c-11.92-16.67-25-32.66-35.32-50.28-5.91-10.08-11.67-12-22.24-10.14-30.65,5.42-61.39,10.61-92.28,14.32-11.1,1.34-14,5.35-15.65,15.76-3.47,22.21-9,44.09-13.67,66.11l-8.68.95c-8.8-20.76-18.89-41.11-25.9-62.46-3.92-11.93-8.89-15-20.93-14.58-27.94,1.08-56,.35-82.62.35-10.89,36.32-21.7,72.35-32.5,108.38l-6.78-.53c-21.2-34.65-25.44-74.37-30.92-114.41l-111.72-20.25-35.9,56.61-7.08-1.46c-3.13-19.34-5.91-38.74-9.64-58-1-5.13-3.8-12.63-7.63-14.06-32-11.95-64.43-22.74-95.5-33.45l-52.29,67.44-6.69-2.55c-4.37-23.37-4.76-47.19.54-70.59,3.46-15.25.09-22.81-14.49-29.87-29-14-56.66-30.8-85.65-46.87-20.83,27.12-40.71,54.87-71.49,71.07l-6.47-2.47c8.44-34.44,16.88-68.88,25.62-104.5l-82.84-67.52L1250.91,3155l-7.45-5.75c14.66-29.49,29.32-59,44.41-89.33l-78.32-93.16.8-.78,99.65,90.57-43.78,74.85,69-53.42s69.44,57.52,99.85,73.21l-30.1,99.17s45.79-44.49,61.24-79.63c33.53,19.45,102.79,54.74,102.79,54.74s19.1,9.24,11.8,49.93-8.87,55.31-8.87,55.31l56.85-79.79s58.92,21.74,87.71,29.43c0,0,27.43,22.72,25.55,92.68,25.43-47,40.84-76.36,40.84-76.36s72.43,14.41,118.28,16.87c0,0,3.89,96.67,19.15,118.09,7.44-28.66,37-115.37,37-115.37s70.5-.49,99.63-3.07l33.38,93.69,12.24-98.08s92.5-10.38,111.74-18.49c0,0,39.59,30,58.37,88.4,3.13-69.39,5.2-103.91,5.2-103.91l86.41-27s22.91-2.65,73,68.63c.78-48.85,7.48-100.1,7.48-100.1l71.54-33.32,65.24,53.79s8.87-28.7-9.9-82.92C2571.62,3153.91,2729.26,3076.54,2795,2994.42Z" fill="none"/>
  </g>
</svg>
