<svg id="mouth4" xmlns="http://www.w3.org/2000/svg" viewBox="0 0 4000 4000">
  <path d="M2800.72,2845.21c-1.9,4.33-7.92,6.59-18.26,7.17-29.88,1.67-59.79,2.61-89.69,4-3.35.16-8.06-.34-10.78.53a3.3,3.3,0,0,0-1.79,1.15c-13.6,19.24-27.53,38.48-38.52,59.22-3.48,6.55.73,17.91,3,26.64,6.64,25.25,14.59,50.17,20.87,75.5a21.17,21.17,0,0,1,.12,8.46,19.41,19.41,0,0,1-4,9.43c-2.13,2.39-11.59.33-16.47-2.2-22.57-11.71-44.68-24.28-65.35-35.66-38.28,34.52-75.49,67.54-111.83,101.49-4.67,4.36-5.7,13.4-6.93,20.53-6.78,39.25-13.13,78.58-19.57,117.89a56.16,56.16,0,0,1-3.17,12.45c-4,9.48-10.9,8.63-25-.88-25.85-17.39-51.83-34.62-77.2-52.7-5.84-4.16-10.65-5.34-16.2-4.18l-.06,0a35.1,35.1,0,0,0-7.21,2.5c-25.47,11.6-51.82,21.25-77.36,32.71a32.08,32.08,0,0,0-14.88,14.5c-12,26-22.52,52.61-33.92,78.86a61.72,61.72,0,0,1-4.07,8c-6.21,9.88-12.59,8.61-24.63-2.55-18.29-16.95-36.8-33.68-54.55-51.18-5.89-5.8-11.31-9-18.78-9.48h0a37.46,37.46,0,0,0-7.27.31c-31.47,4.18-63.22,6.69-94.94,8.39-11,.58-14.9,4.55-17.56,14.46-5.82,21.6-12.47,43-20,64.11-1.92,5.42-8.26,9.27-12.58,13.85-4.22-4.75-10.39-8.82-12.33-14.36-7.78-22.3-14.68-44.94-21-67.71-2.13-7.63-5.52-11.53-11.69-13.3a32.22,32.22,0,0,0-6.49-1.09c-21.08-1.65-42.3-4-62.87-8.6-12.5-2.83-19.62.55-27.31,9.44-10.72,12.41-22.07,24.3-33.65,35.94l-4.85,4.85c-12.1,12-20.65,9.35-24-7.64s-6.61-34.29-8.25-51.6c-.87-9.24-4.47-13.71-11.88-17.2l0,0q-1.29-.6-2.73-1.17c-39.87-15.82-79.24-32.9-119.14-48.67-5.87-2.32-14.17-1.73-20.27.49-7.88,2.87-15.13,7.41-22.64,11.31-2.45,1.27-4.93,2.47-7.47,3.52-4.63,1.92-13.06,3-15.21.58-3.24-3.72-4.17-11.28-3-16.55,2.19-10.23,6.51-20,10.4-31.3-10-6.68-20.15-11.21-27.3-18.62-30.24-31.33-66-34.73-105.43-23.38a49.75,49.75,0,0,1-8,1.56c-3.47.45-7,.67-10.48,1-12.3,1.15-17.42-4.55-15.31-16.7,2.35-13.49,3.46-27.36,7.4-40.37,3.62-11.93,3.17-21.69-1.53-30.77l0,0a53.46,53.46,0,0,0-10.81-13.83c-17.48-16.74-32.65-36-47.9-54.89-6.46-8-11.92-12-23.25-10-21,3.64-42.4,5.59-63.71,7.61l-6.81.65c-17.38,1.66-21.76-3.54-17.57-20.38,7.35-29.58,16.09-58.86,22.06-88.71,1.68-8.39.59-18.19-2-26.95-.63-2.11-1.34-4.15-2.12-6.1-16.13-40.31-34.47-79.73-50.21-120.18-2.89-7.44,2.55-18.11,4.14-27.29,9.34,2,20.18,1.59,27.73,6.38,22.35,14.18,25.91,38.57,28.21,62.24,3.71,38.19,9.74,75.17,33.64,107.16a60.75,60.75,0,0,0,4.86,5.82h0c4.89,5,10.28,7.84,18.86,8.12,29.27,1,58.48,3.66,87.72,5.57,13.26.88,17.84,6.43,14.18,18.31-.27.88-.58,1.79-.94,2.74-8.62,22.67-17.13,45.46-23.87,68.73-1.92,6.64-.13,17.48,4.36,22.31,17.37,18.67,36.84,35.36,54.82,53.49a25.77,25.77,0,0,0,4.08,3.4h0c6,3.92,11.79,3.22,19.18.33,26.07-10.2,52.41-19.73,78.73-29.28,17.48-6.34,24.29-2.58,22.69,13.32-.17,1.7-.44,3.55-.8,5.53-4,22-7.91,44.13-13.07,65.91-3.19,13.43-.91,22,12.51,28.38,19.68,9.31,38.82,19.89,57.58,31a36.84,36.84,0,0,0,5.12,2.55l0,0c7.61,3,13.48,1.22,20.51-6.1,23.29-24.29,47.4-47.8,71.73-71.05,4.39-4.19,12.58-9.06,16.8-7.54,3.25,1.18,6,5.84,7.76,10.61a38.06,38.06,0,0,1,1.58,5.58c6.77,34.82,12.94,69.76,18.76,104.75,1.82,11,6,16.86,17.94,19.86,5.28,1.32,10.07,2.52,14.42,3.57l.06,0,.17,0,.12,0c41.2,9.91,43.74,6.09,70.76-37.07,7.94-12.67,15.24-25.81,24.1-37.79,3.89-5.26,10.94-8.18,16.56-12.17,3.54,5.31,8.8,10.18,10.31,16,7.8,30.07,14.63,60.38,21.6,89.81,2.06.83,3.18,1.53,4.18,1.78h0a3.66,3.66,0,0,0,.56.1l.9.07.21,0,2.57.19c53.1,4,53.58,2.91,75.07-48.43,7.68-18.37,14.91-37,23.28-55,1.83-3.95,5-8.87,8.32-11.64l0,0a8.53,8.53,0,0,1,4.33-2.13c4.52-.47,11.42,6.21,14.65,11.38,16.79,27,33.15,54.21,48.75,81.87,4.77,8.47,10.15,11.27,18.43,9.8h.07c.85-.15,1.73-.35,2.64-.59,25.29-6.64,51-11.82,75.87-19.77,8.08-2.58,16.06-10.76,20.46-18.45,9.23-16.14,16.58-33.44,23.71-50.67a30.92,30.92,0,0,1,3.21-6h0c5.31-7.56,12.37-7.35,21.68-1.65,13.29,8.12,26.19,17.16,40.28,23.57a32.54,32.54,0,0,0,20.17,1.62l.07,0a16.89,16.89,0,0,0,3-1.08c.85-.4,1.68-.79,2.52-1.21l1.36-.63,0,0h0c18.27-8.86,35.53-19.86,53.69-29,12.43-6.28,17.78-15.93,20.08-29,3.32-19,8-37.73,11.68-56.65a38.24,38.24,0,0,1,1.81-6.47v0c3.06-7.89,8.8-11.72,19.86-10.27,19.13,2.52,38.63,2.57,57.63,5.75a37.73,37.73,0,0,0,9.69.47l.66-.07c.49,0,1-.12,1.43-.2l.71-.12q.63-.12,1.23-.27l.81-.21.81-.23.68-.21c.69-.24,1.37-.5,2-.79l.44-.19a28.42,28.42,0,0,0,2.79-1.45c.66-.4,1.32-.82,2-1.27l.06,0,1-.7c.34-.25.67-.52,1-.79s.85-.7,1.27-1.07l0,0c.43-.38.86-.77,1.28-1.18.62-.6,1.24-1.22,1.87-1.88l0,0h0c21.32-22.7,43.61-44.55,63.94-68.09,5.45-6.31,7.6-17.57,7.22-26.38-.76-17.33-4-34.61-6.91-51.79-.77-4.5-.71-8.22.3-11.24,1.73-5.22,6.29-8.32,14.28-9.68,18.41-3.12,36.84-6.46,54.88-11.18,6.35-1.66,13.8-6.37,16.93-11.86,26.56-46.53,52.94-93.24,58.56-148.16.75-7.27,2.36-15.88,6.86-21,5.24-5.93,14.09-8.68,21.38-12.82,2.23,7.51,8.05,16.23,6,22.3a285.6,285.6,0,0,1-23.62,52.63c-12,20.48-13.44,37.48,3.36,56.86,16.23,18.72,29,40.45,43,61.06C2800.5,2834.82,2802.56,2841,2800.72,2845.21Z" fill="none"/>
  <g id="shell">
    <path d="M1241.43,2874.5,1221.25,2957l-6.81.65c-17.38,1.66-21.76-3.54-17.57-20.38,7.35-29.58,16.09-58.86,22.06-88.71,1.68-8.39.59-18.19-2-26.95l22.41,41.55A18.75,18.75,0,0,1,1241.43,2874.5Z" fill="none"/>
    <path d="M1395.87,3068.75l-8.09,44.67-.92,1.56c-3.47.45-7,.67-10.48,1-12.3,1.15-17.42-4.55-15.31-16.7,2.35-13.49,3.46-27.36,7.4-40.37,3.62-11.93,3.17-21.69-1.53-30.77l25.35,30.37A15.47,15.47,0,0,1,1395.87,3068.75Z" fill="none"/>
    <path d="M1548.68,3180.39l-5.76,18.78c-2.45,1.27-4.93,2.47-7.47,3.52-4.63,1.92-13.06,3-15.21.58-3.24-3.72-4.17-11.28-3-16.55,2.19-10.23,6.51-20,10.4-31.3l15.3,12.68A16,16,0,0,1,1548.68,3180.39Z" fill="none"/>
    <path d="M1756.76,3308.82l-4.85,4.85c-12.1,12-20.65,9.35-24-7.64s-6.61-34.29-8.25-51.6c-.87-9.24-4.47-13.71-11.88-17.2l36.22,15.55a11.93,11.93,0,0,1,6.86,8Z" fill="none"/>
    <path d="M2665.7,3027.84a19.41,19.41,0,0,1-4,9.43c-2.13,2.39-11.59.33-16.47-2.2-22.57-11.71-44.68-24.28-65.35-35.66l12.09-6.76S2654.41,3033.81,2665.7,3027.84Z" fill="none"/>
    <path d="M2800.72,2845.21c-1.9,4.33-7.92,6.59-18.26,7.17-29.88,1.67-59.79,2.61-89.69,4-3.35.16-8.06-.34-10.78.53l11.18-7.17S2785.21,2849.7,2800.72,2845.21Z" fill="none"/>
    <path d="M1383.94,2881.62c-3.84-8.77-85.9-6.36-100.51-11.58-12-8.34-20.26-20.42-20.26-20.42h0c4.89,5,10.28,7.84,18.86,8.12,29.27,1,58.48,3.66,87.72,5.57C1383,2864.19,1387.6,2869.74,1383.94,2881.62Z" fill="none"/>
    <path d="M1543,3016.67c-10.18-9.36-80.09,25-93.65,29.72-13.38,4.63-26.59-13.58-26.95-14.09,6,3.92,11.79,3.22,19.18.33,26.07-10.2,52.41-19.73,78.73-29.28C1537.79,2997,1544.6,3000.77,1543,3016.67Z" fill="none"/>
    <path d="M1917.55,3228.58c2.06.83,3.18,1.53,4.18,1.78-15-2-15.79-9.54-15.79-9.54s-12.11-58.9-16-77.39c-4.7-22.43-14.35-5.14-14.35-5.14s-37.72,69.95-48.52,74.54c-16.42,7-49.93-2.2-53-3.07,41.32,9.95,43.83,6.16,70.88-37,7.94-12.67,15.24-25.81,24.1-37.79,3.89-5.26,10.94-8.18,16.56-12.17,3.54,5.31,8.8,10.18,10.31,16C1903.75,3168.84,1910.58,3199.15,1917.55,3228.58Z" fill="none"/>
    <path d="M2118.85,3216.59c-20.54,4-27.76-7.42-27.76-7.42s-36-60-42.79-74.08-15.63-19.4-15.63-19.4l0,0a8.53,8.53,0,0,1,4.33-2.13c4.52-.47,11.42,6.21,14.65,11.38,16.79,27,33.15,54.21,48.75,81.87C2105.19,3215.26,2110.57,3218.06,2118.85,3216.59Z" fill="none"/>
    <path d="M2326.94,3144.6c-8.19,3.05-21.37,6.68-27.6,1.33-43.38-32.76-54.53-24.86-54.53-24.86h0c5.31-7.56,12.37-7.35,21.68-1.65,13.29,8.12,26.19,17.16,40.28,23.57A32.54,32.54,0,0,0,2326.94,3144.6Z" fill="none"/>
    <path d="M2528.5,3005.66c-.46.64-16.54,22.71-28.37,18.82-71-13.57-78.89-4-78.89-4v0c3.06-7.89,8.8-11.72,19.86-10.27,19.13,2.52,38.63,2.57,57.63,5.75C2511.45,3018.06,2520.23,3014.47,2528.5,3005.66Z" fill="none"/>
    <path d="M2679.15,2815.43c-10.63,21-18.85,20.18-18.85,20.18l-67.24,12.54c1.73-5.22,6.29-8.32,14.28-9.68,18.41-3.12,36.84-6.46,54.88-11.18C2668.57,2825.63,2676,2820.92,2679.15,2815.43Z" fill="none"/>
    <path d="M1721.17,3075.94c-14.08-7.75-84.52,73.49-91.56,79.48-6.87,5.84-24.37-4.87-25.24-5.4,7.61,3,13.48,1.22,20.51-6.1,23.29-24.29,47.4-47.8,71.73-71.05,4.39-4.19,12.58-9.06,16.8-7.54C1716.66,3066.51,1719.43,3071.17,1721.17,3075.94Z" fill="none"/>
    <path d="M1944.7,3354.65c-1.92,5.42-8.26,9.27-12.58,13.85-4.22-4.75-10.39-8.82-12.33-14.36-7.78-22.3-14.68-44.94-21-67.71-2.13-7.63-5.52-11.53-11.69-13.3h0l16.18,3.1c3.31,1.8,14.87-.52,21.47,22Z" fill="none"/>
    <path d="M2182.43,3330.59c-6.21,9.88-12.59,8.61-24.63-2.55-18.29-16.95-36.8-33.68-54.55-51.18-5.89-5.8-11.31-9-18.78-9.48l12.15-.63c6.65-.67,11.16-.24,18.07,5.6,2.07,1.75,8.57,7.69,10.09,9Z" fill="none"/>
    <path d="M2438.37,3251.77c-4,9.48-10.9,8.63-25-.88-25.85-17.39-51.83-34.62-77.2-52.7-5.84-4.16-10.65-5.34-16.2-4.18,1.09-.52,16.79-7.67,24.58-2.66l93.85,60.42Z" fill="none"/>
  </g>
</svg>
