<svg id="mouth5" xmlns="http://www.w3.org/2000/svg" viewBox="0 0 4000 4000">
  <path d="M1377.22,2842.54c58.33,77.52,129.77,135.19,212,180.29,4.76,2.61,8.63,11.24,8.75,17.16.78,38.39.4,76.8.4,116.9l144.15,21v-89.15l184.22,33.3c-1.63,22.69-3.44,47.94-5.36,74.84l123.39,30.45c5-36.84,9.7-71.94,14.26-105.71l156.6-23.67c2.95,28.49,6,57.6,9.23,89.15l101.67-34.09c-2.77-26.44-5.17-51.84-8.24-77.16-1-8.09-.39-13.35,8.5-16.87,82.2-32.48,157-77,225.07-140.62,2,87.13-12.38,167.48-47,243.79-57.57,126.83-155.38,210.88-284.06,264.39L2208,3334.79l-117.75,14.94c3.35,37.55,6.59,73.89,9.94,111.36-74.5,15.13-147.51,14.5-223.51,8,6.25-34.45,12.16-67.08,18.35-101.21l-129.9-48.39c-7.07,40.57-13.82,79.31-20.58,118.05C1498.13,3374,1320.87,3124,1377.22,2842.54Z" fill="none"/>
  <g id="shell">
    <path d="M2504.81,3162.19C2429,3306,2249.54,3382,2249.54,3382l-10.95-76.24-123.45,15.09-24.88,28.9,5.71,64.05-170.33,12.77,9.59-84.15-140.49-48.18-29.6,25.28L1752.5,3392s-103.35-19.91-225-134.17S1406,2878.05,1406,2878.05l-28.82-35.51s-51.83,204.12,73.28,384.83,294.06,210.18,294.06,210.18l20.58-118.05,129.9,48.39-18.35,101.21s143.92,14.08,223.51-8c-3.31-37-9.94-111.36-9.94-111.36L2208,3334.79l12.74,91.79S2423.67,3355.73,2504.81,3162.19Z" fill="none"/>
    <polygon points="1742.51 3177.93 1783.3 3157.99 1783.3 3096.15 1742.51 3088.78 1742.51 3177.93" fill="none"/>
    <polygon points="2044.75 3227.37 2084.44 3203.43 2095.97 3116.07 2059.01 3121.66 2044.75 3227.37" fill="none"/>
    <path d="M2326.51,3153.05l17.79-16.67-6.38-81.86s-3.15.86-12.47,5.07c-3.22,1.57-8.91,3.56-7.18,16.3C2320.58,3096,2326.51,3153.05,2326.51,3153.05Z" fill="none"/>
  </g>
</svg>
