<svg id="mouth1" xmlns="http://www.w3.org/2000/svg" viewBox="0 0 4000 4000">
  <path d="M2716.52,2876.78l-168.91,333.58-85.47-36.66-131.56,180.09L2206,3276.21,2115.14,3410l-104.72-106.43L1850.68,3461.7l-107.59-180-103.31,98.6L1563,3191.82l-131.42,39.79L1252,2959c9.07,4.34,13.86,6.32,18.36,8.83,68.5,38.31,137.09,76.46,205.29,115.3l38.67,24.8,112.63-49.9,21.42,47.52,6.26,13.9,12.75,28.27,36.57,7.16,70.49-48.42,54.12,89.61,10.39,17.19,5.25,8.69h34.35L1979.67,3102l5.14,5.56,8.52,9.24,34,36.86,25.5,27.64,42.79,46.37,35.64-7,94.42-113.27,15.33,15.75,6.09,6.26,18.33,18.85c1.53,1.58,3.07,3.15,4.61,4.73l13.89,14.29,18.76,19.29,36.74-17.31,85.89-148.71,40.26,40.91,23.8,24.19,11.94,12.14,32.2-5.47Z" fill="none"/>
  <g id="shell">
    <path d="M1514.33,3108l-38.67-24.8c10.28,5.85,18.55,6.73,29.43,1.88,36.38-16.21,73.22-31.38,112.39-48l9.48,21Z" fill="none"/>
    <path d="M1704,3154.91l-36.57-7.16,96.12-59.38,10.94,18.12Z" fill="none"/>
    <path d="M1878.56,3222h-34.35l114.91-142.24,25.69,27.85-5.14-5.56Z" fill="none"/>
    <path d="M2131.26,3220.65l-35.64,7c36.15-47.31,71.63-93.72,108.73-142.26l21.33,21.94Z" fill="none"/>
    <path d="M2339.43,3169.24l-36.74,17.31c35.51-64.09,68.88-124.3,103-185.93l19.59,19.91Z" fill="none"/>
    <path d="M2713.55,2875.05l3,1.73-183,215.52-32.2,5.47Z" fill="none"/>
    <path d="M2716.52,2876.78l-155,371.34-87.05-45.18L2331.63,3388l-114.76-73.91-99.43,142.34-104.83-113.75-165.3,159.42-108.66-185-111.76,102.15c-25.31-66.55-49.88-131.17-74.7-196.41l-145.86,42.45L1252,2959l179.6,272.58L1563,3191.82l76.75,188.48,103.31-98.6,107.59,180,159.74-158.09L2115.14,3410,2206,3276.21l124.6,77.58,131.56-180.09,85.47,36.66Z" fill="none"/>
    <path d="M1627,3058.06,1514.33,3108l-38.67-24.8c10.28,5.85,18.55,6.73,29.43,1.88,36.38-16.21,73.22-31.38,112.39-48Z" fill="none"/>
    <path d="M1774.45,3106.49,1704,3154.91l-36.57-7.16,96.12-59.38Z" fill="none"/>
    <path d="M1984.81,3107.59l-5.14-5.56L1878.56,3222h-34.35l114.91-142.24Z" fill="none"/>
    <path d="M2225.68,3107.38l-94.42,113.27-35.64,7c36.15-47.31,71.63-93.72,108.73-142.26Z" fill="none"/>
    <path d="M2425.32,3020.53l-85.89,148.71-36.74,17.31c35.51-64.09,68.88-124.3,103-185.93Z" fill="none"/>
    <path d="M2716.52,2876.78l-183,215.52-32.2,5.47,212.23-222.72Z" fill="none"/>
    <path d="M2716.52,2876.78l-155,371.34-87.05-45.18L2331.63,3388l-114.76-73.91-99.43,142.34-104.83-113.75-165.3,159.42-108.66-185-111.76,102.15c-25.31-66.55-49.88-131.17-74.7-196.41l-145.86,42.45L1252,2959l179.6,272.58L1563,3191.82l76.75,188.48,103.31-98.6,107.59,180,159.74-158.09L2115.14,3410,2206,3276.21l124.6,77.58,131.56-180.09,85.47,36.66Z" fill="none"/>
  </g>
</svg>
