<svg id="mouth6" xmlns="http://www.w3.org/2000/svg" viewBox="0 0 4000 4000">
  <path d="M2632.14,2900.79c-2.1,24.74-4.81,50.38-13.21,73.47-25.33,69.54-63.35,131.79-106.87,190.57,0,0,0,0,0,.05-12.68,17.15-25.85,34-39.31,50.65-21,26-44.66,50.06-67.92,74.21-9.23,9.58-20.15,17.8-31.24,25.27-23.6,15.89-31.52,12.94-40.15-13.38-9.79-29.87-26.77-38.43-56.84-28.67-27.58,8.95-37.82,16.83-38.16,36.51v0c-.11,6.38.82,14,2.54,23.3l.15.83c1.65,8.83,3.2,17.7,5.17,26.46a.14.14,0,0,1,0,.06q.9,4,1.93,7.93c4.17,15.86.26,25.73-15.75,33.31-104.88,49.66-215.09,74.27-319.38,73.25-86.1-2.55-158.34-15.57-227.63-43.32-23.67-9.47-31.86-20.7-30.44-46.05,1.1-19.47,5.43-38.76,6.62-58.23,1.64-26.79-6.79-37.21-33.18-43.95a200.08,200.08,0,0,0-26.26-5.26c-13.11-1.52-22.79.13-30.64,5.67v0a41.81,41.81,0,0,0-10.6,11.34,78,78,0,0,0-4.66,8.06c-12.65,25-36.12,29.33-53.6,8.08-69.78-84.83-123.45-178.11-144.8-287.34-2.75-14.07-2.8-29-1.73-43.42,1.55-21,10.29-37.4,23-47.49l0,0c18.23-14.35,44.64-15.83,70,.47,50.68,32.55,103.83,59.65,161.7,76.17,37,10.55,74.76,18.54,112.5,26.06,31,6.18,39.7,15.64,39.19,47.24a175.27,175.27,0,0,0,2.56,31.59c2.67,15.87,12.91,27.22,28.07,30,17.34,3.18,35.43,3.48,53.14,3a26.7,26.7,0,0,0,7.09-1.12c9.13-2.8,15.12-10.6,16.67-21.08,1.95-13.18,2.29-26.63,2.83-40,.89-22.07,13.51-35.26,35.21-36.8q64.41-4.58,128.8-9.56c31.09-2.43,44.18,9.24,45.23,40.94,1.49,44.83,8,51,52.67,49.38,11.7-.41,21.42-2.22,29.3-5.58l.25-.11c18.79-8.12,27.07-25.14,26.87-53.19,0-3.35-.15-6.72-.43-10.06-3.57-42.63.8-49.09,41.21-60.51a1317.71,1317.71,0,0,0,310.5-132.7c19.9-11.69,40-16.53,62.11-6.43a66.05,66.05,0,0,1,7.91,4.26C2625.57,2872.93,2633.48,2885,2632.14,2900.79Z" fill="none"/>
  <g id="shell">
    <path d="M1908.21,3048.3c-12.77.91-11,46.35-12.28,64S1887,3131,1887,3131l-33.55,15.75,0-.62c9.13-2.8,15.12-10.6,16.67-21.08,1.95-13.18,2.29-26.63,2.83-40C1873.89,3063,1886.51,3049.84,1908.21,3048.3Z" fill="none"/>
    <path d="M2216.57,3088.78c-3.53,15.26-15.27,18.79-15.27,18.79l-36.84,15.8c18.79-8.12,27.07-25.14,26.87-53.19,0-3.35-.15-6.72-.43-10.06-3.57-42.63.8-49.09,41.21-60.51C2204.05,3007.87,2220.09,3073.52,2216.57,3088.78Z" fill="none"/>
    <path d="M1560.93,3294.86a78,78,0,0,0-4.66,8.06c-12.65,25-36.12,29.33-53.6,8.08-69.78-84.83-123.45-178.11-144.8-287.34-2.75-14.07-2.8-29-1.73-43.42C1356.14,2980.24,1444.51,3270.46,1560.93,3294.86Z" fill="none"/>
    <path d="M2241.08,3333.63c1.65,8.83,3.2,17.7,5.17,26.46-2.31-9.44-4.06-18.83-5.32-27.29Z" fill="none"/>
    <path d="M2248.2,3368.08c4.17,15.86.26,25.73-15.75,33.31-104.88,49.66-215.09,74.27-319.38,73.25-86.1-2.55-158.34-15.57-227.63-43.32-23.67-9.47-31.86-20.7-30.44-46.05,1.1-19.47,5.43-38.76,6.62-58.23,1.64-26.79-6.79-37.21-33.18-43.95a200.08,200.08,0,0,0-26.26-5.26c-13.11-1.52-22.79.13-30.64,5.67.69-1,25.8-36.11,55.42-26.85,30,9.39,75.43,4.7,67.61,67.31s-2.61,65.74,15.91,70.43,245.42,109.94,535.79-34.24Q2247.17,3364.14,2248.2,3368.08Z" fill="none"/>
    <path d="M2512,3164.88c-12.68,17.15-25.85,34-39.31,50.65-21,26-44.66,50.06-67.92,74.21-9.23,9.58-20.15,17.8-31.24,25.27-23.6,15.89-31.52,12.94-40.15-13.38-9.79-29.87-26.77-38.43-56.84-28.67-27.58,8.95-37.82,16.83-38.16,36.51,0,0-2.46-53,64-65.34,33.91-7.83,50.08,25.37,50.08,25.37S2382.58,3320.31,2512,3164.88Z" fill="none"/>
  </g>
</svg>
