<svg id="nose5" xmlns="http://www.w3.org/2000/svg" viewBox="0 0 4000 4000">
  <path d="M1945.18,2780.08c-.72,38-11.31,67.83-33.72,92-.71.77-1.44,1.54-2.18,2.3-5.84,6-18.29,10.76-25.58,8.68-7.09-2-15.52-13.12-16.36-21-4.36-41.12,8.71-77.32,38.09-106.49,5-5,16.68-7.73,23.31-5.55a14.46,14.46,0,0,1,5.88,4.11l0,0c3.65,3.9,6.66,9.62,9.13,14.37C1946.14,2773.09,1945.12,2779.43,1945.18,2780.08Z" fill="none"/>
  <path d="M2065.8,2841.08c0,7.52-3.26,16.92-8.17,23.66a28.3,28.3,0,0,1-5.41,5.72c-10.42,8-22.09.32-31.09-8.61-23.53-23.35-36.43-51.29-41.46-87.11,0-14.41,9.57-21.15,17.76-26.89,9.36-6.57,17.82-2.58,25.31,3.65,2.44,2,4.77,4.28,7,6.49C2052.77,2780.9,2065.6,2808.89,2065.8,2841.08Z" fill="none"/>
  <g id="shell">
    <path d="M1911.46,2872.05h0c-.71.77-1.44,1.54-2.18,2.3-5.84,6-18.29,10.76-25.58,8.68-7.09-2-15.52-13.12-16.36-21-4.36-41.12,8.71-77.32,38.09-106.49,5-5,16.68-7.73,23.31-5.55a14.46,14.46,0,0,1,5.88,4.11l0,0S1857.58,2830.24,1911.46,2872.05Z" fill="none"/>
    <path d="M2057.63,2864.74a28.3,28.3,0,0,1-5.41,5.72c-10.42,8-22.09.32-31.09-8.61-23.53-23.35-36.43-51.29-41.46-87.11,0-14.41,9.57-21.15,17.76-26.89,9.36-6.57,17.82-2.58,25.31,3.65C2022.74,2751.5,1975.13,2782.22,2057.63,2864.74Z" fill="none"/>
  </g>
</svg>
