<svg id="nose6" xmlns="http://www.w3.org/2000/svg" viewBox="0 0 4000 4000">
  <path d="M2060.27,2925v0c-5.62,14.7-21,23.2-45,25.92-15.46,1.75-31.27.32-46.92.28-1.06,0-42.55,0-63.63-2.35-37.3-4.24-54-25.32-44.07-61.11,11.93-42.83,24.57-86.18,43.53-126.17,18.45-38.93,43.86-51.94,67.89-38.68,11.16,6.14,22,18,31.76,35.49,22.6,40.68,39.85,84.92,54.55,129.21C2063.46,2902.83,2064,2915.25,2060.27,2925Z" fill="none"/>
  <path id="shell" d="M2060.27,2925v0c-5.62,14.7-21,23.2-45,25.92-15.46,1.75-31.27.32-46.92.28-1.06,0-42.55,0-63.63-2.35-37.3-4.24-54-25.32-44.07-61.11,11.93-42.83,24.57-86.18,43.53-126.17,18.45-38.93,43.86-51.94,67.89-38.68,0,0-31.94-.91-49.16,49.7s-32.87,103.3-32.87,103.3-20.87,52.18,15.84,58.78C1905.9,2934.65,2032.71,2951.61,2060.27,2925Z" fill="none"/>
</svg>
