<svg id="nose2" xmlns="http://www.w3.org/2000/svg" viewBox="0 0 4000 4000">
  <path d="M1957.29,2901.49c.08,36.16-30.21,67.94-66.49,71.13h0c-1.77.16-3.56.24-5.35.26-29.88.26-51.37-21.94-50.84-52.52.65-38.29,34.34-77.76,66.62-78.07,1.83,0,3.64.05,5.42.19C1936,2844.87,1957.23,2869.08,1957.29,2901.49Z" fill="none"/>
  <path d="M2115.14,2926.8c-.16,27.19-16.74,45.88-42.12,47.68a58.19,58.19,0,0,1-7.71,0c-26.69-1.56-48.52-13.07-59.78-38-12-26.52-7.92-52.65,9.84-75.54a43.24,43.24,0,0,1,41.53-16.42h0A50.74,50.74,0,0,1,2080.4,2855C2099.44,2869.94,2115.28,2902.69,2115.14,2926.8Z" fill="none"/>
  <g id="shell">
    <path d="M1890.76,2972.62c-1.77.16-3.56.24-5.35.26-29.88.26-51.37-21.94-50.84-52.52.65-38.29,34.34-77.76,66.62-78.07,1.83,0,3.64.05,5.42.19-1.24.44-52.88,18.89-53.16,77.65C1853.45,2920.13,1851.66,2968.25,1890.76,2972.62Z" fill="none"/>
    <path d="M2073,2974.48a58.19,58.19,0,0,1-7.71,0c-26.69-1.56-48.52-13.07-59.78-38-12-26.52-7.92-52.65,9.84-75.54a43.24,43.24,0,0,1,41.53-16.42c-1,.11-34.69,4.23-38.33,55.25C2018.57,2899.78,2011.12,2952.14,2073,2974.48Z" fill="none"/>
  </g>
</svg>
