<svg xmlns="http://www.w3.org/2000/svg" xmlns:xlink="http://www.w3.org/1999/xlink" viewBox="0 0 4000 4000">
  <g id="slicesA" style="isolation: isolate">
    <path d="M2098.5,1815.07c6.77.78,11.61,4.35,17,6l38,4c8.36,2.71,19.18,5.07,28,9s22.87,14.47,32,19c0,.67-3,2.34-3,3-42.47,33.29-72.3,60.45-114,88,0-.66-2-.33-2-1-4.15-6.57.84-19.46-1-28C2086.38,1882.09,2093.2,1845,2098.5,1815.07Z" fill="none" fill-rule="evenodd"/>
    <path d="M1915.5,1817.07h10c3.65,1.22,3,4.68,3,8q-2,12.51-4,25c-4,29.68-9.85,39.65-16,60-3.69,12.22-5.91,26-13,36,0-.33-4.39,7.58-5,9-11.41-15.51-23.06-31.11-37-45-3.33-3.66-14.67-16.33-18-20-9.7-8.36-17.66-17-29-24,10.4-6.43,18-17.93,28-23,6.35-3.21,14.88-.79,20-2,1.59-.37,3.76-3.25,5-4a222.29,222.29,0,0,1,28-14C1895.83,1819.64,1908.38,1821.91,1915.5,1817.07Z" fill="none" fill-rule="evenodd"/>
    <path d="M2605.5,1826.07c17.19.78,37,2.27,53,6l40,4c20.66,5.67,40.84,9.32,61,18,27.16,16.23,46.95,26.56,68,42,5.06,3.72,11.74,10.49,17,14,12.8,8.56,26.21,14.46,39,23,5.51,3.69,9.77,10.07,15,14,14.74,11.1,28.89,22.3,40,37,9.15,12.12,23.9,20.79,33,33,31.31,42,56.56,90.09,79,141,3.79,8.61,10.24,17.38,14,26,9.78,22.4,15.6,44.34,25,67,29.81,71.85,53.06,145.64,76.18,211.85,7.72,22.1,12.21,62.65,17.82,85.15,5.36,21.54,4.3,33.42,9,54,.33,11.34,2.67,30.67,3,42,3.69,17.17,2,37.17,2,57,0,10.93-1.28,27.55-1,37,.44,14.59,1.29,30.66-1,41-.33,14.67-2.67,27.34-3,42-3.33,14.21-2.47,23.89-6,38-1,7.34-5,21.67-6,29-9.27,32.83-16.9,67.14-28,97-3.05,8.23-3.57,15.95-7,24-9.31,21.89-23.75,55.21-37,73-.33,0,1.33-1,1-1,0-.66,2-8.33,2-9-.51-3.49.37.67,3-17,2.46-16.52,3.66-32.8,8-50,4.56-26.76,10-43.89,14-69,3.33-27.66,8.67-46.33,12-74,2.84-12.25,4.13-36.33,7-49,.33-7.33,2.83-21,4-40,2.56-26.79,1.89-39.34,1-75-1-40.36-3.23-68-9-105-3-19.1-5.27-30.9-9-51-2.43-15-8.39-39.05-9-45-11.77-46.92-18.18-69.63-33-114-12-35.93-22.49-68.1-37-101-5.12-11.59-14.44-30.92-20-42-15.29-30.46-31-60-46.08-80.84-8.2-11.31-21.71-27.87-29.92-39.16-7.93-10.89-15.94-20.34-24-31-12.77-16.87-33.09-39.23-50-52-8.19-6.18-14.54-13.15-23-19-14.39-9.93-30.28-19.5-45-29-83.8-53.38-211.25-62.21-332-33-23.19,8.54-50.16,15.22-68,21-7.27,2.36-11.32,3.47-24,6,23.35-.12,44.81-2,66-1,15.33-.33,44.67-2.66,60-3,24.65,1.16,44.26,2,60,3,2.77.18,37.74,4.92,42,6,35.87,9.18,15.94,3.71,52,13,14.15,3.65,26.81,10.38,40,16,12.32,5.26,25.61,11.07,37,18,10.39,6.33,21,12.32,31,19,11.37,7.58,22.05,16.88,33,25,82.69,67.55,139.17,156.58,189,260,19.75,41,37.22,84.85,53,129,5.26,14.71,9,29,14,44,7.48,22.48,12.25,46,19,70.88,2.33,8.55,2.68,15.16,5,24.12,5.07,19.91,8.95,43.9,12,66,4,45.33,4.33,53.68,5,97,2.21,10.38-1.32,61.12-2,72-1.29,20.46-2.25,44.13-4,63-1.33,22-3.67,38-5,60-3.59,15.94-3.51,27.1-6,45-1.14,8.23-.65,17.89-3,27-4.6,17.83-7.85,37.71-14,56-7.93,23.58-20.37,47.17-30,69-5.41,12.27-8.72,24.19-15,36-3.58,6.73-9.92,13.55-14,20-13.86,21.92-27.43,43.56-41,65-17.12,27.06-32.22,54.39-50,81-5.27,7.89-14.35,13.54-20,21-19.2,25.39-42.55,45.88-68,65-3.54,2.67-6.39,7.35-10,10-36.91,27.16-71.9,57.18-112,81-8.57,5.09-21.55,9.1-31,13-13.15,5.44-24.13,9.41-38,14-16.7,5.54-31.85,9-49,13-14.42,3.39-22.41,4.87-36,8-5.67.34-16.33,2.67-22,3a312.84,312.84,0,0,1-50,4c-9,0-30.39,1.78-38,0a6.7,6.7,0,0,1,2,0c3.7-2.83,3.3-2.94,8-5,9.28-4.05,19-9.3,28-14,6.68-3.48,11.59-7.08,18-11,8.65-5.29,19-13.12,27-19,16.76-12.31,22.77-22.12,36-38a318.51,318.51,0,0,0,28-41c18.38-33.89,28.5-53.92,46-94,13.61-31.17,22.95-54.41,36-86,7.24-17.52,26-60.93,32-79,11.6-34.76,15.78-42.94,26-79,2.75-13.56,7.28-29.69,10-42.37,3.78-17.08,8.19-48.48,14-78.63,2.34-12.19,3.15-27.66,6-61,1.34-15.66.09-30.43,0-47-.33-13,1.35-24.84,1-43-1.07-9.25-3-25.48-4-39-1.86-24.17-4.08-27.15-8-53-2.17-14.28-7.39-46.56-11-62-6.16-26.38-13.91-61.81-20-85-4.08-15.53-8.29-32.51-13-49-3.77-13.18-9.13-27.16-16-51-8.85-30.73-29.68-75.13-33-83-28.15-66.67-29.72-74.85-66-141-7.41-13.51-11-24.83-19-38-15.44-25.37-19.47-30-35-55-4.93-7.92-20.95-27.85-26-34-.55-.67-13.7-15.18-19-21a206.39,206.39,0,0,0-31-28c-4.53-3.25-9.43-9.79-14-13-66-46.24-157.94-93.8-250-86,0-.33-5.52,1.1,0-1-5.62,2,3.67-4,4-4,14.69-15,18.54-22.1,54-46,16.62-13.32,33.27-22.26,53-33,10.1-5.49,22.82-13.7,33-19,52.43-27.28,90.09-44.21,144-65,18.14-7.61,38.87-13.37,60-18C2581.07,1829.74,2590.41,1827.63,2605.5,1826.07Z" fill="none" fill-rule="evenodd"/>
    <path d="M1369.5,1856.07c38.08.93,61.79,1.35,92,9,9.31,2.36,32,5.27,41,8,11.34,3.45,14.34,5.1,27,7,1.67-2,9.33,0,11-2,3.7,1.88,8.8,6.27,14,6a61.53,61.53,0,0,0,10-1c14-3.23,35.23-7.52,47-5,0,1,1,5,1,6-.94,2.07-.22,6,0,11-3.49,2-8.87,4.49-10,9,10.44,6.93,23.09,8.22,36,13,25.91,9.61,36.86,13.83,60,24,10,4.39,25.06,12.62,35,17,9.22,4.07,22.29,10.56,31,15,26,13.29,47.58,24.81,67,40,0,.34,10,6.67,10,7-1,0-13-5-14.8-4.66-11-4.76-27.65-6.41-39.2-9.34-23.76-6-50.7-7.38-75-13-7.33-.33-23.67-2.66-31-3-21-2.48-25.27-1.83-47-2-10.87-.08-24.74-.28-35,2-8.67.34-25.33,2.67-34,3-16.8,4.32-35.52,8.59-52,14-25.65,8.43-31.21,9.48-55,20-5.66,2.51-26.92,11.79-32,15-12.94,8.18-21.7,12.8-34,21-11.62,7.76-24.69,16.82-36,25a195.44,195.44,0,0,0-20,17c-17.92,17.09-23.62,21.5-39,37-3.67,3.34-14.33,13.67-18,17-13.28,17.55-31,33.87-44,52-30.68,42.68-45.87,62.52-75,107-9.89,15.1-33.73,58-41,74-4.76,10.5-15.82,31.61-22,45-15.43,33.44-23.45,50.08-35,86-9.58,29.79-18.94,56.27-23,70-4.3,13.11-11.74,38-15,56-1.94,7.86-5.33,23.94-9,47-.74,7.7-4.5,34.69-6,47-.84,14-4.17,45.73-5,69-.51,14.33-1,36.44-.78,59-.8,9.69.79,35,.78,44,0,19.1.19,27.59,4,59,1.67,26.67,8.43,70.24,12,95,15.15,74.31,16.45,81,37,136,5.32,14.24,15.85,36.37,28,56,8.32,13.45,19.44,24.88,29,37,57.67,73.14,72.13,96.18,117,145,5.87,6.39,29,28.74,36,34,8.44,6.35,17.56,14.66,26,21,4,3,20.06,13.59,23,17-4.72,1.84-26-3-31-3-6.37-4.61-16.09-5.05-24-8-16.37-6.09-33.51-10.93-50-18a799.68,799.68,0,0,1-162-93c-10.21-7.58-17.91-19.36-28-27-40.41-30.56-71.31-73.69-101-115-16.76-23.32-36.48-45.53-53-69-7.66-10.88-12.86-22.66-20-34-9.17-14.55-20-29.33-29-44-5.24-8.54-6.9-18.64-11-28-14.83-33.8-28.68-71.45-41-109-10.3-31.38-13.79-65.18-22-99-3.9-16.07-3.38-32.84-7-48q-1-19.49-2-39c-2.21-10.26.44-22.52-2-34-2-9.57-1-23.73-1-35,0-19.07-1.6-40.78,2-57q1-20.49,2-41c11.75-50,16.81-100.5,32-147,5.75-17.61,8.85-39.43,16-57,13.46-33.07,24.79-64.25,39-97,14-32.31,25.5-52.25,44-80,4-6.06,13.7-26.15,18-32,10-13.61,19.91-26.48,30-40,4.22-5.64,12.77-15.36,17-21,18.88-25.15,29.07-34.49,53-59,3-3.33,19-17.66,22-21a275.6,275.6,0,0,1,32-28c3.33-3.66,13.67-11.33,17-15,13.18-9.62,19.65-13.6,33-23,8.67-6.1,17-14.28,26-20,12.23-7.72,23-17,35-25,18.76-12.51,37.74-24.47,56-38,4.15-3.07,10.56-7.22,15-10a130.16,130.16,0,0,1,19-10c8.31-3.64,14.53-6.79,23-10,5.55-2.09,13.31-4.27,19-6,11.49-3.48,25.27-6.86,37-10C1331.45,1861.88,1352.41,1857.54,1369.5,1856.07Z" fill="none" fill-rule="evenodd"/>
    <path d="M1985.5,2016.07c35.14-.19,85.57,16.5,107,31,5.49,3.72,14.46,12.52,20,16,7.58,4.77,33.7,34.8,37,42,9.52,20.78,11.18,26.62,17,51,.67,6.67,3.33,19.34,4,26,2.49,9.76,1.94,18.91,4,32,.54,3.45,1,13.32,2,17,.33,9,.67,15,2.72,23.46,3.6,20.66,5.54,44,10.28,64.54,1.33,13,3.67,25,5,38,10.45,44.93,6.95,87.51,17,133,0,4,1,16,1,20,4.34,19.67,3.68,36.33,8,56,.33,8.34,1.67,24.67,2,33,3.6,23.75.69,39.82,3,61,1.33,33.33,6.67,63.67,8,97,4.67,39.67,7.33,72.34,12,112,.67,9.67,2.33,33.34,3,43,4.8,21.71,4.63,43.95,7,67,3.88,37.71,6,51.77,6,84,0,10.32,1.88,27.36,0,36,0,7.67,1,17.34,1,25,0,19.31-2.77,34.24-4,51-1.36,18.54-2.82,37.88-4,56-2.25,25.7-6.46,34.77-8,50-2.5,11.22-4.09,31.94-7,44-3.44,14.23-6.22,30.87-10,45-2,12-5,25-7,37-7.53,28.08-14.65,53.21-23,79-2.33,9.67-5.67,19.34-8,29-2.08,5.41-6.21,13.64-8,19-4.8,14.41-7,20-12,31-5.67,12.35-8.82,23.09-16,34-2.42,3.69-19.55,34.48-23,37-1.67,0-5.33-3-7-3-17.63,2.61-12.91,2.89-29,4-6.28.44-15,.39-21,2-24.33,2-36.67,1-61,3-18.48,1.35-46.45,2.49-66,1-20.66-.33-33.34-2.66-54-3-42.33,1.51-76.34-3.63-125-18-7.24-2.13-16.58-2.62-22-6-4.38-2.73-16.75-14.18-20-19-5.11-7.57-10.83-12.33-16-20a220.68,220.68,0,0,1-19-34c-7-16-8.22-21-15-37-4-9.38-9.7-28.08-13-38-6.22-18.69-9.11-34.41-16-53-2.77-7.48-13.76-43.16-16-51-13.82-48.36-25.26-81.62-39-133-4-14.79-15.3-66.81-17-82-4.54-40.49-4.54-49.11-6-95-1.16-36.54-2.11-50.58-2-74,.08-18.52-1.43-54.27,2-70,1.44-15.49,4.67-46.33,5-56,1.47-9.13,6.73-46,7-54,.33-9.66,6.67-72.33,7-82,6-53.32,6-45.67,12-99,6.84-26.55,9.22-54.44,16-81,2-12.33,5-26.66,7-39,11.48-59.42,26.55-112.43,44-165,6.15-18.53,11.44-38.2,19-56,5.92-13.94,16.84-41.67,24-55,17.46-32.49,28-58.36,60-102,5.33-5,16.67-16,22-21,8-8.66,12.82-11.6,23-20,10.41-7.53,22.06-14.12,33-21,22.25-14,38.69-26,69-33,12.53-2.9,23.62-4.45,37-7C1964.8,2017.3,1974.63,2017.18,1985.5,2016.07Z" fill="none" fill-rule="evenodd"/>
  </g>
  <g id="SlicesB" style="isolation: isolate">
    <path d="M1564.5,1774.07c24.52,3.51,28.76,1.84,35,7,16.3-1.41,44,6.09,61,11,8.55,2.48,15.29-.4,23,3,35.41,15.64,67.33,28.54,89,41,21.68,20.1,45,35.83,65,53,7.07,6.06,56.07,63.08,55,70-2.59,8.41-11,17.34-18,25-7.43,9.58-12.38,20.23-29,21,6,15.16,1.31,13.08-3,23,.33.34,1.67,2.67,2,3,10,4.67,19,8.34,29,13-40.49,25.45-79.49,51.73-108,90-99.62,133.73-143,359.43-173,561-2.67,40-7.33,83-10,123-9.47,72.5-19,160.72-9,238q.49,34,1,68c12.56,80.24,32.56,153.15,54,222,25.18,80.88,56.77,217.5,115,264,0,1,7,6,7,7-151,31.61-301.36-21.11-396-77-89.74-53-134.53-103.29-197-182q-38.49-50.49-77-101c-84.53-148.84-101.27-450.87-48-645,69.52-253.34,253.16-557.31,511-615,56.81-12.7,136-12.2,195-1l91,17c-.33-.33-.67-.66-1-1-65.94-43-146.72-79.34-228-106,0-.33-1-2.66-1-3,9.79-7.82,12.42-8.72,7-23-15-2.79-25.49-2.92-33,10-63.81-12.19-92.38-22-131-27-23.66-2-47.34-5-71-7,.33-.33,8.75-11.69,20-15,6.12-10.59,14.4-14.46,23-22,9.15-8,16.9-15.17,33-17,10.37-5.85,19.37-14,31-18,7.83-2.71,6.59,2.78,30-8C1529.22,1772.84,1547.5,1775.07,1564.5,1774.07Z" fill="none" fill-rule="evenodd"/>
    <path d="M2428.5,1779.07c79.32-1.26,123.46,16.36,168,47-25.33,6.34-58.05,13.29-80,23-104.93,41.3-214.46,89.67-302,171,43.19-8,89.72,6.48,123,18,151.87,52.61,232.29,158.45,295,300l58,126c43.58,116.9,70.42,230.2,89,371,2.33,35.67,5,80.35,2,118-24.41,197.52-60.63,265.14-109,380-36.81,87.42-71,180.3-146,229-103.36,67.14-232.88,88-393,75,.67-.66,1.14-4.39-3-3,56.23-73.1,104.15-269.05,120-391,21-161.52-.71-328.09-20-476q-5-92.49-10-185c-14.12-108.6-22.34-208.76-40-311-9.13-52.84-9.11-115-29-159-10.95-24.22-36.32-37.42-50-57,21.47-9.61,42.23-19.76,61-22-21.67,3.75-81.28-70.87-67-89,13.66-10,30.33-22,44-32,46.28-38.34,85.58-78.71,149-101l94-26Z" fill="none" fill-rule="evenodd"/>
    <path d="M2590.5,1940.07c57.78-4,88.51-5.21,151,11,102.92,26.53,171.17,85.8,240.92,185.14,100.46,139,155.65,326.32,173.08,479.86,22.09,132.07-11.55,289.63-33,394-6.14,29.89-5.48,66.18-21,87-5,3.34-8,8.67-13,12-8.39,10.65-9.27,21.14-22,28,8.33-24,17.67-48,26-72,5.52-29,10-62,13-91,8.33-77.28,19.28-217.74,5-310-39.92-257.84-184.59-560.5-389-645-86.21-40.14-194.53-38.77-322-35,31.34-13.91,69.23-26.18,137-39C2564.88,1940.51,2574.79,1939.45,2590.5,1940.07Z" fill="none" fill-rule="evenodd"/>
  </g>
  <g id="stem" style="isolation: isolate">
    <path d="M2033.5,1649.07v4c8.07-.08,11,2.81,16,4l12-2c3.61,1,7.73,5.46,11,7l11,1c6,1.68,8.19,6.23,12,10,.06,9.34,2.15,18.42,4,26v30c.14,9.92,2,20,2,32v30c-1.76,7.34.29,20.46-2,30-8.44,35.17-8.77,68.35-3,104,.67,4.16-2.44,12.22-1,18,7.19,28.9,20.87,52.9,43,67,3.67,2.34,3.53,8.36,6,12,3.37,5,11.45,8.28,17,11v1c-22.6,3.61-39.47,21.19-64,20-8-11.76-26.23-15.85-40-22-30.45-13.6-75.7-20.5-114-9-8.09,2.43-13.07,1-21,3-8.47,2.19-20.82,5-29,9-7.53,3.73-13.61,9.11-24,10-7.58-6.82-24.31-7.57-28-18,5.77-7.5,6.29-13.39,4-22,7-.36,21.19-12.7,25-17,3.53-4,4.44-10.08,8-14s10.85-7.77,13-13v-10c.89-3.39,4-7,5-10v-8c.82-2,4.1-2,5-4,.33-2.66.67-5.33,1-8,1.83-5.1,5.55-13.07,7-18v-8c1.82-5.18,5.16-12.37,7-18,3.13-9.56,4.83-21.09,7-30v-12c2.85-8.89,7.09-23,8-34,2,0,0-7,2-7,.6-10.64,2.61-7,0-17v-44c-.23-6.29-2-10.36-2-18,0-8.38-5.11-20.87-3-26,2.61-9.53,27.34-24.9,37-28h10l6-7a73.35,73.35,0,0,1,10-5,98.73,98.73,0,0,1,54-5,25.78,25.78,0,0,1,2,5Z" fill="none" fill-rule="evenodd"/>
  </g>
  <g id="new_shadow_Image" data-name="new shadow Image">
    <image id="new_shadow_Image-2" data-name="new shadow Image" width="3336" height="2366" transform="translate(322.5 1635.07)" opacity="0.73" xlink:href="pumpkin1.png"/>
  </g>
</svg>
