<svg xmlns="http://www.w3.org/2000/svg" viewBox="0 0 4000 4000">
  <g id="nose6">
    <path d="M2060.27,2925v0c-5.62,14.7-21,23.2-45,25.92-15.46,1.75-31.27.32-46.92.28-1.06,0-42.55,0-63.63-2.35-37.3-4.24-54-25.32-44.07-61.11,11.93-42.83,24.57-86.18,43.53-126.17,18.45-38.93,43.86-51.94,67.89-38.68,11.16,6.14,22,18,31.76,35.49,22.6,40.68,39.85,84.92,54.55,129.21C2063.46,2902.83,2064,2915.25,2060.27,2925Z" fill="none"/>
    <path id="shell" d="M2060.27,2925v0c-5.62,14.7-21,23.2-45,25.92-15.46,1.75-31.27.32-46.92.28-1.06,0-42.55,0-63.63-2.35-37.3-4.24-54-25.32-44.07-61.11,11.93-42.83,24.57-86.18,43.53-126.17,18.45-38.93,43.86-51.94,67.89-38.68,0,0-31.94-.91-49.16,49.7s-32.87,103.3-32.87,103.3-20.87,52.18,15.84,58.78C1905.9,2934.65,2032.71,2951.61,2060.27,2925Z" fill="none"/>
  </g>
  <g id="nose5">
    <path d="M1945.18,2780.08c-.72,38-11.31,67.83-33.72,92-.71.77-1.44,1.54-2.18,2.3-5.84,6-18.29,10.76-25.58,8.68-7.09-2-15.52-13.12-16.36-21-4.36-41.12,8.71-77.32,38.09-106.49,5-5,16.68-7.73,23.31-5.55a14.46,14.46,0,0,1,5.88,4.11l0,0c3.65,3.9,6.66,9.62,9.13,14.37C1946.14,2773.09,1945.12,2779.43,1945.18,2780.08Z" fill="none"/>
    <path d="M2065.8,2841.08c0,7.52-3.26,16.92-8.17,23.66a28.3,28.3,0,0,1-5.41,5.72c-10.42,8-22.09.32-31.09-8.61-23.53-23.35-36.43-51.29-41.46-87.11,0-14.41,9.57-21.15,17.76-26.89,9.36-6.57,17.82-2.58,25.31,3.65,2.44,2,4.77,4.28,7,6.49C2052.77,2780.9,2065.6,2808.89,2065.8,2841.08Z" fill="none"/>
    <g id="shell-2" data-name="shell">
      <path d="M1911.46,2872.05h0c-.71.77-1.44,1.54-2.18,2.3-5.84,6-18.29,10.76-25.58,8.68-7.09-2-15.52-13.12-16.36-21-4.36-41.12,8.71-77.32,38.09-106.49,5-5,16.68-7.73,23.31-5.55a14.46,14.46,0,0,1,5.88,4.11l0,0S1857.58,2830.24,1911.46,2872.05Z" fill="none"/>
      <path d="M2057.63,2864.74a28.3,28.3,0,0,1-5.41,5.72c-10.42,8-22.09.32-31.09-8.61-23.53-23.35-36.43-51.29-41.46-87.11,0-14.41,9.57-21.15,17.76-26.89,9.36-6.57,17.82-2.58,25.31,3.65C2022.74,2751.5,1975.13,2782.22,2057.63,2864.74Z" fill="none"/>
    </g>
  </g>
  <g id="nose4">
    <path d="M1837.3,2977.49l137.37-200.91,131.11,200.91Z" fill="none"/>
    <polygon id="shell-3" data-name="shell" points="1993.86 2805.99 1887 2970.22 2101.03 2970.22 2105.78 2977.49 1837.3 2977.49 1974.67 2776.58 1993.86 2805.99" fill="none"/>
  </g>
  <g id="nose3">
    <path d="M2073,2864.74A112.72,112.72,0,1,1,1960.29,2752,112.64,112.64,0,0,1,2073,2864.74Z" fill="none"/>
    <path id="shell-4" data-name="shell" d="M2019.11,2960.91A112.72,112.72,0,1,1,1960.29,2752s-90.07,28.81-73.29,123.5S2019.11,2960.91,2019.11,2960.91Z" fill="none"/>
  </g>
  <g id="nose2">
    <path d="M1957.29,2901.49c.08,36.16-30.21,67.94-66.49,71.13h0c-1.77.16-3.56.24-5.35.26-29.88.26-51.37-21.94-50.84-52.52.65-38.29,34.34-77.76,66.62-78.07,1.83,0,3.64.05,5.42.19C1936,2844.87,1957.23,2869.08,1957.29,2901.49Z" fill="none"/>
    <path d="M2115.14,2926.8c-.16,27.19-16.74,45.88-42.12,47.68a58.19,58.19,0,0,1-7.71,0c-26.69-1.56-48.52-13.07-59.78-38-12-26.52-7.92-52.65,9.84-75.54a43.24,43.24,0,0,1,41.53-16.42h0A50.74,50.74,0,0,1,2080.4,2855C2099.44,2869.94,2115.28,2902.69,2115.14,2926.8Z" fill="none"/>
    <g id="shell-5" data-name="shell">
      <path d="M1890.76,2972.62c-1.77.16-3.56.24-5.35.26-29.88.26-51.37-21.94-50.84-52.52.65-38.29,34.34-77.76,66.62-78.07,1.83,0,3.64.05,5.42.19-1.24.44-52.88,18.89-53.16,77.65C1853.45,2920.13,1851.66,2968.25,1890.76,2972.62Z" fill="none"/>
      <path d="M2073,2974.48a58.19,58.19,0,0,1-7.71,0c-26.69-1.56-48.52-13.07-59.78-38-12-26.52-7.92-52.65,9.84-75.54a43.24,43.24,0,0,1,41.53-16.42c-1,.11-34.69,4.23-38.33,55.25C2018.57,2899.78,2011.12,2952.14,2073,2974.48Z" fill="none"/>
    </g>
  </g>
  <g id="nose1">
    <path d="M2086.4,2974.48h-233l108.63-253.94q6.56,13.41,13.06,26.69c35.82,73.15,70.41,143.81,105.79,216.07Q2083.66,2968.88,2086.4,2974.48Z" fill="none"/>
    <path id="shell-6" data-name="shell" d="M2086.4,2974.48h-233l108.63-253.94q6.56,13.41,13.06,26.69L1887,2961.65l193.93,1.65Q2083.66,2968.88,2086.4,2974.48Z" fill="none"/>
  </g>
</svg>
