<svg xmlns="http://www.w3.org/2000/svg" viewBox="0 0 1562.22 687.59">
  <g id="eyes1">
    <path d="M1776.74,2519.43c-13.37,34.47-45.74,59.1-83.15,59.24-54.32.22-104.79-45.17-105.42-94.82-.62-48.85,45.17-95.49,93.75-95.49,47.1,0,89.91,35.25,99.41,78.25H1834c-.37-2.85-.8-5.7-1.29-8.57-14.57-85.69-68.16-145-147.66-157.22a284.45,284.45,0,0,0-45.31-3.42c-71.86.48-134,30.43-185.15,87.43-28,31.24-43.54,69-45,111.29-4.06,117.85,80.81,203.78,200.55,205.35,5.12-.78,10.27-1.47,15.42-2.15,14.76-1.94,29.56-3.75,44-7.17,93.81-22.29,155.08-89.1,165-172.72Z" transform="translate(-1188.58 -2177.14)" fill="none"/>
    <path d="M2299.37,2286.3c-79-6.36-191.36,63.92-202.48,180.31h62.05c8.31-42.71,48.37-78.33,91.56-78.09,53.53.3,102.39,46.31,102,96-.43,51.54-42.32,94.44-91.89,94.12-40.73-.26-78.15-25.53-94.52-59.24h-67c16.41,90.89,96.9,163.5,187.29,163.53,109.55,0,207.36-93.45,207.69-198.37C2494.34,2382.11,2396.06,2280,2299.37,2286.3Z" transform="translate(-1188.58 -2177.14)" fill="none"/>
    <g id="shell">
      <path d="M2134.39,2447.83l30.07.77-5.52,18h-62.05c11.12-116.39,123.49-186.67,202.48-180.31C2173.22,2313.77,2134.39,2447.83,2134.39,2447.83Z" transform="translate(-1188.58 -2177.14)" fill="none"/>
      <path d="M2130.68,2519.43s11,116.66,168.69,163.09" transform="translate(-1188.58 -2177.14)" fill="none"/>
      <path d="M2257,2578.67l40.76-.7a35.92,35.92,0,0,0,10.92-1.87c16.33-5.53,60.15-25.75,62.58-86.93,3.13-78.78-70.37-97.89-70.37-97.89s-20.15-4.89-40.25-2.16c19,4.05,44.18,5.42,77.51,48.56,23.2,35.84,14,68.31.34,95.9S2289.87,2579,2257,2578.67Z" transform="translate(-1188.58 -2177.14)" fill="none"/>
      <path d="M1625.58,2699.32c-5.15.68-10.3,1.37-15.42,2.15-119.74-1.57-204.61-87.5-200.55-205.35,1.45-42.3,17-80,45-111.29,51.14-57,113.29-86.95,185.15-87.43-2.88.89-188.55,58.86-184.66,208.73C1459,2657.17,1625.58,2699.32,1625.58,2699.32Z" transform="translate(-1188.58 -2177.14)" fill="none"/>
      <path d="M1829.45,2442s-5.75-.79-34.71,0c-31.31-77.48-129-51.9-129-51.9s88.1-14.62,115.6,76.55H1834Z" transform="translate(-1188.58 -2177.14)" fill="none"/>
      <path d="M1689.48,2578.67s74.35,8.85,99-59.24h-11.74s-8.08,25.35-30.65,41.05S1713.74,2577.25,1689.48,2578.67Z" transform="translate(-1188.58 -2177.14)" fill="none"/>
    </g>
  </g>
  <g id="eyes2">
    <path d="M2462.14,2706.39l-416.43-28.64,202-439.65,34.74,75.86h0c56,122.21,111.3,243.08,167.4,365.59Q2456,2693,2462.14,2706.39Z" transform="translate(-1188.58 -2177.14)" fill="none"/>
    <path d="M1878.56,2677.71l-416.42,28.71,214.4-468.32q15.64,34,31.2,67.88h0l158.78,345.51Q1872.52,2664.58,1878.56,2677.71Z" transform="translate(-1188.58 -2177.14)" fill="none"/>
    <g id="shell-2" data-name="shell">
      <path d="M1878.56,2677.71l-416.42,28.71,214.4-468.32q15.64,34,31.2,67.88h0l-156.43,362.14,315.21-16.63Q1872.52,2664.58,1878.56,2677.71Z" transform="translate(-1188.58 -2177.14)" fill="none"/>
      <path d="M2462.14,2706.39l-416.43-28.64,202-439.65,34.74,75.86h0L2118.85,2654l331,25.52Q2456,2693,2462.14,2706.39Z" transform="translate(-1188.58 -2177.14)" fill="none"/>
    </g>
  </g>
  <g id="eyes3">
    <path d="M2406.41,2720.54h0c-12.9,49.61-46.36,93.32-92.55,115.95-69.36,34-152.86,19.91-206.91-35-42.32-43-63.88-96.59-73.4-154.42-10.19-61.9-15.77-124.57-23.13-184.92,4.85-38.46,8.75-74.27,14.22-109.83,1.66-10.78,6.78-21.36,11.85-31.25,14.83-28.92,39-40.89,67.9-33.17a83.78,83.78,0,0,1,12,4.23c14,6.1,28.44,14.29,38.8,25.2,69,72.64,138.07,145.26,204.66,220.07,28.34,31.83,45,71.33,50.87,114.55A177.81,177.81,0,0,1,2406.41,2720.54Z" transform="translate(-1188.58 -2177.14)" fill="none"/>
    <path d="M1860.79,2763.18a293.81,293.81,0,0,1-16.58,25.27c-34.06,46.34-79.3,75.87-142.23,76.28-87.49.58-166.67-70.46-183.06-162.55-15.52-87.2,9.17-164.9,61.83-233,39.55-51.15,82.9-99.73,128-146.15,26-26.8,55.2-38.23,83.38-35.3l.4.05c27.5,3,54,19.65,75.66,49.07,21.5,29.22,29.53,62.84,32.25,98,2.83,36.64,4.56,73.37,6.07,98.44C1907.87,2621.17,1900.5,2695.65,1860.79,2763.18Z" transform="translate(-1188.58 -2177.14)" fill="none"/>
    <g id="shell-3" data-name="shell">
      <path d="M1844.21,2788.45c-34.06,46.34-79.3,75.87-142.23,76.28-87.49.58-166.67-70.46-183.06-162.55-15.52-87.2,9.17-164.9,61.83-233,39.55-51.15,82.9-99.73,128-146.15,26-26.8,55.2-38.23,83.38-35.3l.4.05s-155.15,164.26-190.94,252c-30,73.57-34,158.39,15.43,212.24S1705.85,2814.48,1844.21,2788.45Z" transform="translate(-1188.58 -2177.14)" fill="none"/>
      <path d="M2406.41,2720.55c-12.9,49.61-46.36,93.32-92.55,115.95-69.36,34-152.86,19.91-206.91-35-42.32-43-63.88-96.59-73.4-154.42-10.19-61.9-15.77-124.57-23.13-184.92,4.85-38.46,8.75-74.27,14.22-109.83,1.66-10.78,6.78-21.36,11.85-31.25,14.83-28.92,39-40.89,67.9-33.17-12.8,19.41-106.7,176.36,10.75,439.66C2225.68,2907.58,2406.41,2720.55,2406.41,2720.55Z" transform="translate(-1188.58 -2177.14)" fill="none"/>
    </g>
  </g>
  <g id="eyes4">
    <path d="M2750.79,2512.53c.56,75.3-24.87,135.59-71.63,176.45h0c-33.18,29-77.11,48.24-130.09,56.1-120.32,17.84-230.27-13.35-332.72-73.54-47-27.6-90.24-61.49-135.18-92.53l3-6.43q28.59-7.42,56.33-16.13h0c216.69-68,394-194.85,534.1-379.31,1.67,2,3.57,3.37,4.31,5.23C2721,2288.47,2749.94,2397.75,2750.79,2512.53Z" transform="translate(-1188.58 -2177.14)" fill="none"/>
    <path d="M1922.78,2573c-40.88,40.62-80.06,83.17-123,121.44-48.84,43.51-102.17,79.78-161.74,103.19a410.45,410.45,0,0,1-86.15,23.57c-122.41,19.43-229.56-9.19-307.62-111.86-35.54-46.74-50.31-101.7-54.52-160.28-6.93-96.37,18.31-184.82,61.62-269.42,1.94-3.79,4.36-7.33,7.4-12.39q23.7,25.74,48.38,49.25C1476.91,2478.32,1681,2561.09,1920,2567.6Z" transform="translate(-1188.58 -2177.14)" fill="none"/>
    <g id="shell-4" data-name="shell">
      <path d="M1638,2797.62a410.45,410.45,0,0,1-86.15,23.57c-122.41,19.43-229.56-9.19-307.62-111.86-35.54-46.74-50.31-101.7-54.52-160.28-6.93-96.37,18.31-184.82,61.62-269.42,1.94-3.79,4.36-7.33,7.4-12.39q23.7,25.74,48.38,49.25S1061.85,2803.44,1638,2797.62Z" transform="translate(-1188.58 -2177.14)" fill="none"/>
      <path d="M2679.15,2689c-33.18,29-77.11,48.24-130.09,56.1-120.32,17.84-230.27-13.35-332.72-73.54-47-27.6-90.24-61.49-135.18-92.53l3-6.43q28.59-7.42,56.33-16.13h0S2391.21,2781.82,2679.15,2689Z" transform="translate(-1188.58 -2177.14)" fill="none"/>
    </g>
  </g>
  <g id="eyes5">
    <path d="M1882.88,2674.25a177.39,177.39,0,0,1-24,43.59c-30,39.49-74.49,58.87-128.52,64.48-9.25,1-18.68.13-28,.13-115.86-5.62-214.62-48.36-286.92-140.91-59.93-76.71-63.35-159.9-15.47-244.39A352.83,352.83,0,0,1,1440,2341c22.23-25.73,53.15-35.76,81.49-29.86,19.26,4,37.33,15.35,50.67,34.12,31,43.57,56.89,90.7,86.73,135.13,20.07,29.88,41.19,59.5,65.27,86.16,31.74,35.13,72.19,53.82,121.15,52.59C1879.16,2618.32,1895.17,2642.6,1882.88,2674.25Z" transform="translate(-1188.58 -2177.14)" fill="none"/>
    <path d="M2554.33,2560.29c-11,38.93-33.68,76.84-69,112-71.44,71.08-159,107.36-253.35,111.4-80.54-1.69-142.51-24.65-178-95.18a135.38,135.38,0,0,1-9.91-26.1c-6.28-23.85,7.86-47.08,32.19-46.19,80.49,3,129.66-43.78,169.76-104.17,28.92-43.54,54.44-89.32,82-133.78,10.15-16.39,20.85-32.61,32.95-47.59,31.2-38.6,88.26-42.49,122-6C2550.45,2397.32,2576.74,2480.91,2554.33,2560.29Z" transform="translate(-1188.58 -2177.14)" fill="none"/>
    <g id="shell-5" data-name="shell">
      <path d="M1858.87,2717.84c-30,39.49-74.49,58.87-128.52,64.48-9.25,1-18.68.13-28,.13-115.86-5.62-214.62-48.36-286.92-140.91-59.93-76.71-63.35-159.9-15.47-244.39A352.83,352.83,0,0,1,1440,2341c22.23-25.73,53.15-35.76,81.49-29.86-16.5,11.42-110.37,81.89-99.11,200.44,12.34,129.91,143.82,194.81,143.82,194.81S1684.19,2788.56,1858.87,2717.84Z" transform="translate(-1188.58 -2177.14)" fill="none"/>
      <path d="M2554.33,2560.29c-11,38.93-33.68,76.84-69,112-71.44,71.08-159,107.36-253.35,111.4-80.54-1.69-142.51-24.65-178-95.18a135.38,135.38,0,0,1-9.91-26.1c-6.28-23.85,7.86-47.08,32.19-46.19,0,0,42.8,126.09,137,128.29S2454.63,2709.1,2554.33,2560.29Z" transform="translate(-1188.58 -2177.14)" fill="none"/>
    </g>
  </g>
  <g id="eyes6">
    <path d="M1820.2,2604.22l-53.1-3.23-21.65-1.32-24.71-1.51c2.35-67.55-23.51-116-93.91-125.33l-.46-.06c-17.33-2.24-32.87-.7-47,4.71h0c-30.1,11.53-53.7,40.66-74.1,88.27q-3.43,8-6.75,16.72l-94.87-6.73c2.94-23.71,4.67-46.78,8.81-69.4,11.31-61.79,37.14-116.31,83.22-160.28,42.27-40.33,101-62.68,157.77-57.51h0c61.51,5.6,120.72,43.48,154.29,125.79C1832.63,2475.35,1831.78,2538.08,1820.2,2604.22Z" transform="translate(-1188.58 -2177.14)" fill="none"/>
    <path d="M2514.41,2650.18,2434,2645l-40.76-2.61c-2.08-35.33-2.82-68.16-6.33-100.7-2.55-23.61-12.83-44.81-29.93-62.12-16-16.18-35.26-24.1-54.63-23.77-20.3.32-40.72,9.7-57.57,28.08-31.47,34.32-39.2,77.73-45.07,121.65-.17,1.28-.31,2.57-.44,3.87-.59,5.92-.81,12.2-1.4,20.18l-93.08-6.08c-4.7-83.79-6.14-165.48,37-240.06,46.63-80.67,115.38-106.15,179.8-95.65h0c43.44,7.08,84.9,30.52,116.27,64.44,50.31,54.39,70.7,121.66,76.11,193.71C2516.51,2579.65,2514.41,2613.68,2514.41,2650.18Z" transform="translate(-1188.58 -2177.14)" fill="none"/>
    <g id="shell-6" data-name="shell">
      <path d="M1439.43,2559.35l65.83,6.41q-3.43,8-6.75,16.72l-94.87-6.73c2.94-23.71,4.67-46.78,8.81-69.4,11.31-61.79,37.14-116.31,83.22-160.28,42.27-40.33,101-62.68,157.77-57.51C1460.1,2299.5,1439.43,2559.35,1439.43,2559.35Z" transform="translate(-1188.58 -2177.14)" fill="none"/>
      <path d="M2133,2599.67l66.34,9.76c-.59,5.92-.81,12.2-1.4,20.18l-93.08-6.08c-4.7-83.79-6.14-165.48,37-240.06,46.63-80.67,115.38-106.15,179.8-95.65C2117.48,2292.56,2133,2599.67,2133,2599.67Z" transform="translate(-1188.58 -2177.14)" fill="none"/>
      <path d="M2434,2645l-40.76-2.61c-2.08-35.33-2.82-68.16-6.33-100.7-2.55-23.61-12.83-44.81-29.93-62.12-16-16.18-35.26-24.1-54.63-23.77h0s68.36-13.57,109.88,53.18C2434,2553.61,2434,2645,2434,2645Z" transform="translate(-1188.58 -2177.14)" fill="none"/>
      <path d="M1767.1,2601l-21.65-1.32-24.71-1.51c2.35-67.55-23.51-116-93.91-125.33l-.46-.06c-17.33-2.24-32.87-.7-47,4.71,1.44-.82,46.1-25.89,104.23-11.65C1742.7,2480.3,1764.1,2548.32,1767.1,2601Z" transform="translate(-1188.58 -2177.14)" fill="none"/>
    </g>
  </g>
</svg>
