<svg xmlns="http://www.w3.org/2000/svg" viewBox="0 0 4000 4000">
  <g id="mouth1">
    <path d="M2716.52,2876.78l-168.91,333.58-85.47-36.66-131.56,180.09L2206,3276.21,2115.14,3410l-104.72-106.43L1850.68,3461.7l-107.59-180-103.31,98.6L1563,3191.82l-131.42,39.79L1252,2959c9.07,4.34,13.86,6.32,18.36,8.83,68.5,38.31,137.09,76.46,205.29,115.3l38.67,24.8L1627,3058l21.42,47.52,6.26,13.9,12.75,28.27,36.57,7.16,70.49-48.42,54.12,89.61,10.39,17.19,5.25,8.69h34.35L1979.67,3102l5.14,5.56,8.52,9.24,34,36.86,25.5,27.64,42.79,46.37,35.64-7,94.42-113.27,15.33,15.75,6.09,6.26,18.33,18.85c1.53,1.58,3.07,3.15,4.61,4.73l13.89,14.29,18.76,19.29,36.74-17.31,85.89-148.71,40.26,40.91,23.8,24.19,11.94,12.14,32.2-5.47Z" fill="none"/>
    <g id="shell">
      <path d="M1514.33,3108l-38.67-24.8c10.28,5.85,18.55,6.73,29.43,1.88,36.38-16.21,73.22-31.38,112.39-48l9.48,21Z" fill="none"/>
      <path d="M1704,3154.91l-36.57-7.16,96.12-59.38,10.94,18.12Z" fill="none"/>
      <path d="M1878.56,3222h-34.35l114.91-142.24,25.69,27.85-5.14-5.56Z" fill="none"/>
      <path d="M2131.26,3220.65l-35.64,7c36.15-47.31,71.63-93.72,108.73-142.26l21.33,21.94Z" fill="none"/>
      <path d="M2339.43,3169.24l-36.74,17.31c35.51-64.09,68.88-124.3,103-185.93l19.59,19.91Z" fill="none"/>
      <path d="M2713.55,2875.05l3,1.73-183,215.52-32.2,5.47Z" fill="none"/>
      <path d="M2716.52,2876.78l-155,371.34-87.05-45.18L2331.63,3388l-114.76-73.91-99.43,142.34-104.83-113.75-165.3,159.42-108.66-185-111.76,102.15c-25.31-66.55-49.88-131.17-74.7-196.41l-145.86,42.45L1252,2959l179.6,272.58,131.4-39.76,76.75,188.48,103.31-98.6,107.59,180,159.74-158.09L2115.14,3410,2206,3276.21l124.6,77.58,131.56-180.09,85.47,36.66Z" fill="none"/>
      <path d="M1627,3058.06,1514.33,3108l-38.67-24.8c10.28,5.85,18.55,6.73,29.43,1.88,36.38-16.21,73.22-31.38,112.39-48Z" fill="none"/>
      <path d="M1774.45,3106.49,1704,3154.91l-36.57-7.16,96.12-59.38Z" fill="none"/>
      <path d="M1984.81,3107.59l-5.14-5.56-101.11,120h-34.35l114.91-142.24Z" fill="none"/>
      <path d="M2225.68,3107.38l-94.42,113.27-35.64,7c36.15-47.31,71.63-93.72,108.73-142.26Z" fill="none"/>
      <path d="M2425.32,3020.53l-85.89,148.71-36.74,17.31c35.51-64.09,68.88-124.3,103-185.93Z" fill="none"/>
      <path d="M2716.52,2876.78l-183,215.52-32.2,5.47,212.23-222.72Z" fill="none"/>
      <path d="M2716.52,2876.78l-155,371.34-87.05-45.18L2331.63,3388l-114.76-73.91-99.43,142.34-104.83-113.75-165.3,159.42-108.66-185-111.76,102.15c-25.31-66.55-49.88-131.17-74.7-196.41l-145.86,42.45L1252,2959l179.6,272.58,131.4-39.76,76.75,188.48,103.31-98.6,107.59,180,159.74-158.09L2115.14,3410,2206,3276.21l124.6,77.58,131.56-180.09,85.47,36.66Z" fill="none"/>
    </g>
  </g>
  <g id="mouth2">
    <path d="M2795,2994.42c-2.7,3.95-5.14,8.12-8.15,11.82-52.56,64.85-113.57,120.66-182,168.22-11.46,8-18.48,15.19-13.75,30.11,2.18,6.89,1.66,14.85,1.25,22.26s-2.18,14.7-4.1,26.67l-45.75-36.93c-28,14.51-57.38,29.25-86.11,45.09-3.78,2.08-5.67,9.68-6.29,15-2,17.07-3,34.27-4.35,51.42l-6,2.34c-10.61-11.64-20.86-23.65-32-34.71-3.64-3.6-10.69-7.78-14.51-6.55-36,11.64-71.72,24.39-106.7,36.54-1.06,24.2-2.12,48.07-3.17,71.94l-7.1,2.87c-11.92-16.67-25-32.66-35.32-50.28-5.91-10.08-11.67-12-22.24-10.14-30.65,5.42-61.39,10.61-92.28,14.32-11.1,1.34-14,5.35-15.65,15.76-3.47,22.21-9,44.09-13.67,66.11l-8.68.95c-8.8-20.76-18.89-41.11-25.9-62.46-3.92-11.93-8.89-15-20.93-14.58-27.94,1.08-56,.35-82.62.35-10.89,36.32-21.7,72.35-32.5,108.38l-6.78-.53c-21.2-34.65-25.44-74.37-30.92-114.41L1777,3333.73l-35.9,56.61-7.08-1.46c-3.13-19.34-5.91-38.74-9.64-58-1-5.13-3.8-12.63-7.63-14.06-32-12-64.43-22.74-95.5-33.45l-52.29,67.44-6.69-2.55c-4.37-23.37-4.76-47.19.54-70.59,3.46-15.25.09-22.81-14.49-29.87-29-14-56.66-30.8-85.65-46.87-20.83,27.12-40.71,54.87-71.49,71.07l-6.47-2.47c8.44-34.44,16.88-68.88,25.62-104.5l-82.84-67.52L1250.91,3155l-7.45-5.75c14.66-29.49,29.32-59,44.41-89.33l-78.32-93.16.8-.78,2.2-2.17,94.57,73.41,75.35-55.46,3.29,2.84,3.51,3-37.83,79.8,87.13,52.78,60.78-58.23,4.31,2.13,3.26,1.61-14.77,82.78c30.37,13.08,63.12,27.5,96.3,40.88a3.6,3.6,0,0,0,2.38-.09h.05c3.18-1,7.6-4.61,10.11-7.36,11.19-12.26,21.7-25.14,32.47-37.78l4.57,1,1.93.43c.76,16,2.89,32.17,1.86,48.1-.8,12.48,3.18,17.67,14.85,20.84,27.48,7.48,54.63,16.17,81,24.11,12.4-19.46,23.61-37,34.81-54.63l1.39.18,4.84.64c4.3,20.77,8.61,41.54,13.6,65.63l98.15,16.19,32.83-97.56a173.59,173.59,0,0,1,9.9,16.53c11.55,21.92,16.4,43,18.91,64.17,2.24,18.9,9.35,23.89,27,22.94,23.59-1.27,47.3-.31,71-.31l17.8-66.51,5.69-.87.32-.05c8,17.1,17.14,33.81,23.76,51.45,3.76,10,8.06,13.94,18.75,12.5,29.6-4,59.3-7.29,92-11.22v-81.14l5.88-2.22,1.44-.54,50.08,72.84,108.43-29.21c1.67-23.25,3.2-44.65,4.73-66L2384,3149l1.14-.54,45,49.72c24.67-10.34,52.17-21.31,79-33.81a3.43,3.43,0,0,0,1.24-1.06h0c2.34-3.07,2.91-10.87,3-16,.53-18.81.2-37.65.2-56.49l4.27-2.4.86-.48,51.45,47.61C2648,3096.37,2722,3047.43,2795,2994.42Z" fill="none"/>
    <g id="shell-2" data-name="shell">
      <path d="M2517.9,3088.43v68.44l-7.52,6.42c2.34-3.07,2.91-10.87,3-16,.53-18.81.2-37.65.2-56.49Z" fill="none"/>
      <path d="M2384,3149v62.76l-9.78,5.7c1.67-23.25,3.2-44.65,4.73-66.05Z" fill="none"/>
      <path d="M2218.13,3249.61l-9.7,8.12v-81.14l5.88-2.22Z" fill="none"/>
      <path d="M2073.55,3205.05l-16.63,61.61-6.86,5.77,17.8-66.51Z" fill="none"/>
      <path d="M1385.76,2984.63l-69.46,52.89-9.18-.27,75.35-55.46Z" fill="none"/>
      <path d="M1503.66,3064.14l-55.88,56.1h-9.21l60.78-58.23Z" fill="none"/>
      <path d="M1638,3145.17l-28.38,43.41-18.77.73c3.18-1,7.6-4.61,10.11-7.36,11.19-12.26,21.7-25.14,32.47-37.78Z" fill="none"/>
      <path d="M1776.8,3184.58l-27.45,53.29-11.63.78c12.4-19.46,23.61-37,34.81-54.63Z" fill="none"/>
      <path d="M1929.74,3179.3,1903,3263.17l-12.49,3.49,32.83-97.56A92.77,92.77,0,0,1,1929.74,3179.3Z" fill="none"/>
      <path d="M2795,2994.42c-2.7,3.95-5.14,8.12-8.15,11.82-52.56,64.85-113.57,120.66-182,168.22-11.46,8-18.48,15.19-13.75,30.11,2.18,6.89,1.66,14.85,1.25,22.26s-2.18,14.7-4.1,26.67l-45.75-36.93c-28,14.51-57.38,29.25-86.11,45.09-3.78,2.08-5.67,9.68-6.29,15-2,17.07-3,34.27-4.35,51.42l-6,2.34c-10.61-11.64-20.86-23.65-32-34.71-3.64-3.6-10.69-7.78-14.51-6.55-36,11.64-71.72,24.39-106.7,36.54-1.06,24.2-2.12,48.07-3.17,71.94l-7.1,2.87c-11.92-16.67-25-32.66-35.32-50.28-5.91-10.08-11.67-12-22.24-10.14-30.65,5.42-61.39,10.61-92.28,14.32-11.1,1.34-14,5.35-15.65,15.76-3.47,22.21-9,44.09-13.67,66.11l-8.68.95c-8.8-20.76-18.89-41.11-25.9-62.46-3.92-11.93-8.89-15-20.93-14.58-27.94,1.08-56,.35-82.62.35-10.89,36.32-21.7,72.35-32.5,108.38l-6.78-.53c-21.2-34.65-25.44-74.37-30.92-114.41L1777,3333.73l-35.9,56.61-7.08-1.46c-3.13-19.34-5.91-38.74-9.64-58-1-5.13-3.8-12.63-7.63-14.06-32-12-64.43-22.74-95.5-33.45l-52.29,67.44-6.69-2.55c-4.37-23.37-4.76-47.19.54-70.59,3.46-15.25.09-22.81-14.49-29.87-29-14-56.66-30.8-85.65-46.87-20.83,27.12-40.71,54.87-71.49,71.07l-6.47-2.47c8.44-34.44,16.88-68.88,25.62-104.5l-82.84-67.52L1250.91,3155l-7.45-5.75c14.66-29.49,29.32-59,44.41-89.33l-78.32-93.16.8-.78,99.65,90.57-43.78,74.85,69-53.42s69.44,57.52,99.85,73.21l-30.1,99.17s45.79-44.49,61.24-79.63c33.53,19.45,102.79,54.74,102.79,54.74s19.1,9.24,11.8,49.93-8.87,55.31-8.87,55.31l56.85-79.79s58.92,21.74,87.71,29.43c0,0,27.43,22.72,25.55,92.68,25.43-47,40.84-76.36,40.84-76.36s72.43,14.41,118.28,16.87c0,0,3.89,96.67,19.15,118.09,7.44-28.66,37-115.37,37-115.37s70.5-.49,99.63-3.07l33.38,93.69,12.24-98.08s92.5-10.38,111.74-18.49c0,0,39.59,30,58.37,88.4,3.13-69.39,5.2-103.91,5.2-103.91l86.41-27s22.91-2.65,73,68.63c.78-48.85,7.48-100.1,7.48-100.1L2516.3,3183l65.24,53.79s8.87-28.7-9.9-82.92C2571.62,3153.91,2729.26,3076.54,2795,2994.42Z" fill="none"/>
    </g>
  </g>
  <g id="mouth3">
    <path d="M2633,3148.45l-202.23,91.33c1.43,8.35,2.71,16.87,3.55,25.53v.06c1.9,19.4,1.64,39.51-4,60h0c-.3,1.1-.63,2.2-1,3.3-.17.56-.34,1.11-.52,1.67-.35,1.11-.72,2.23-1.11,3.34-.2.56-.39,1.12-.6,1.68q-1.1,3-2.37,6c-.26.63-.53,1.26-.81,1.88s-.63,1.42-.95,2.12h0c-.35.74-.7,1.49-1.06,2.23-.22.47-.45.94-.68,1.41-.51,1-1,2.07-1.58,3.1q-21.34-48.71-42.64-97.33l-163.6,38.44c-2.2,28.35-4.42,57.09-6.66,85.92l-.4,5.22h0l-1.83,23.62-10.24,1.56c-13.1-35-26.2-70-40.23-107.59L2033.42,3313h-.06c-.53,19.2-1.27,38.31-3,57.41a397.6,397.6,0,0,1-9.87,60.66v.06a300.33,300.33,0,0,1-12.61,39.17c-28-50.07-36.62-103-45.43-154.93l-151.9-6.55h-.2l-17.8,64.36-4.38,15.83L1780,3389c-6.83-24.91-13.26-49.94-20.81-74.63-1.64-5.39-6.66-12.89-11.22-13.76-44-8.45-88.15-15.69-131-23l-15.43,63.1-5.85,23.94-6.13-.37a133.85,133.85,0,0,1-24.23-70c-1.52-25.63-12.54-35-36.7-43-65.07-21.37-128.6-47.41-192.74-71.64l-1-.37,1.2-3.58c.33-1,.67-2,1-3l223.09,43.4,21.11-68.29,7.25-.24,3.12,9.55h0c5.76,17.72,11.42,35.48,17.67,53,1.77,4.95,5.76,12.41,9.48,12.88,43.17,5.52,86.49,9.92,130.37,14.69,2.67-30,5.13-57.62,7.58-85.21a108.28,108.28,0,0,1,15.11,15.24c13.79,16.94,21.2,36.47,26.34,56.83,3.2,12.71,8.65,17.34,21.37,17.21,45.36-.44,90.72-.17,134.78-.17q8.81-69.82,17.59-139.53h7a238.27,238.27,0,0,1,12.15,21.74c18.11,36.7,27,77,35.38,118.79l122.53-8.16,10-81,7.32-2,6,13.51h0c9,20.41,18.28,41.25,28.6,64.56l164.34-24.16c-2.06-26.85-4-51.89-6.32-82.47,3.3,2.32,6.39,4.71,9.31,7.15,22.39,18.7,34.5,40.83,48.12,65.24l215.67-52.48c.75,1.7,1.5,3.39,2.24,5.09Z" fill="none"/>
    <g id="shell-3" data-name="shell">
      <path d="M1584,3278.2c3.08,36.36,17.56,62.41,17.56,62.41l-5.85,23.94-6.13-.37a133.85,133.85,0,0,1-24.23-70c-1.52-25.63-12.54-35-36.7-43-65.07-21.37-128.6-47.41-192.74-71.64l.22-3.95,213.56,58.68S1580.91,3241.85,1584,3278.2Z" fill="none"/>
      <path d="M1776.74,3309.09a640,640,0,0,0,15.75,64.2l-4.38,15.83L1780,3389c-6.83-24.91-13.26-49.94-20.81-74.63-1.64-5.39-6.66-12.89-11.22-13.76-44-8.45-88.15-15.69-131-23L1646.6,3257l97.19,15.94S1770.48,3275.43,1776.74,3309.09Z" fill="none"/>
      <path d="M1984.62,3286.44s13.41,122.19,35.81,144.81a300.33,300.33,0,0,1-12.61,39.17c-28-50.07-36.62-103-45.43-154.93l-151.9-6.55,7.86-28.09Z" fill="none"/>
      <path d="M2165.7,3274.91l40.6,109.55h0l-1.83,23.62-10.24,1.56c-13.1-35-26.2-70-40.23-107.59l-120.62,11c-.44-10.21-1.63-19.44-3.86-26.9C2059.26,3286.21,2165.7,3274.91,2165.7,3274.91Z" fill="none"/>
      <path d="M2430.23,3325.43h0a133.38,133.38,0,0,1-10.65,26.82q-21.35-48.7-42.64-97.33l-163.6,38.44c-2.2,28.35-4.42,57.09-6.66,85.92l8.75-115.24s121.14-19.23,172.91-36.51C2394.22,3244.65,2430.23,3325.43,2430.23,3325.43Z" fill="none"/>
      <path d="M2430.73,3239.78c1.43,8.35,2.71,16.87,3.55,25.53a297.91,297.91,0,0,0-9.35-47.53c13-3.6,149.94-43.52,208-69.33Z" fill="none"/>
      <path d="M1591.7,3157h0l-14,54.74-17.48,4.23,21.11-68.29,7.25-.24Z" fill="none"/>
      <path d="M1771.91,3167.67l-5.87,64.46-16.82,5.51c2.67-30,5.13-57.62,7.58-85.21A108.28,108.28,0,0,1,1771.91,3167.67Z" fill="none"/>
      <path d="M1991.12,3123.74l-15.34,110.48-21.38,7.32q8.8-69.83,17.59-139.53h7A237.91,237.91,0,0,1,1991.12,3123.74Z" fill="none"/>
      <path d="M2172.36,3164.9h0l-9.79,62.58-13.54,6.88,10-81,7.32-2C2168.37,3155.89,2170.37,3160.38,2172.36,3164.9Z" fill="none"/>
      <path d="M2375.43,3199.52l-10.13,5.79c-2.06-26.85-4-51.89-6.32-82.47,3.3,2.32,6.39,4.71,9.31,7.15Z" fill="none"/>
    </g>
  </g>
  <g id="mouth4">
    <path d="M2800.72,2845.21c-1.9,4.33-7.92,6.59-18.26,7.17-29.88,1.67-59.79,2.61-89.69,4-3.35.16-8.06-.34-10.78.53a3.25,3.25,0,0,0-1.79,1.15c-13.6,19.24-27.53,38.48-38.52,59.22-3.48,6.55.73,17.91,3,26.64,6.64,25.25,14.59,50.17,20.87,75.5a21.14,21.14,0,0,1,.12,8.46,19.42,19.42,0,0,1-4,9.43c-2.13,2.39-11.59.33-16.47-2.2-22.57-11.71-44.68-24.28-65.35-35.66C2541.57,3034,2504.36,3067,2468,3100.94c-4.67,4.36-5.7,13.4-6.93,20.53-6.78,39.25-13.13,78.58-19.57,117.89a56.33,56.33,0,0,1-3.17,12.45c-4,9.48-10.9,8.63-25-.88-25.85-17.39-51.83-34.62-77.2-52.7-5.84-4.16-10.65-5.34-16.2-4.18h-.06a35.38,35.38,0,0,0-7.21,2.5c-25.47,11.6-51.82,21.25-77.36,32.71a32.07,32.07,0,0,0-14.88,14.5c-12,26-22.52,52.61-33.92,78.86a61.35,61.35,0,0,1-4.07,8c-6.21,9.88-12.59,8.61-24.63-2.55-18.29-17-36.8-33.68-54.55-51.18-5.89-5.8-11.31-9-18.78-9.48h0a37.61,37.61,0,0,0-7.27.31c-31.47,4.18-63.22,6.69-94.94,8.39-11,.58-14.9,4.55-17.56,14.46q-8.73,32.4-20,64.11c-1.92,5.42-8.26,9.27-12.58,13.85-4.22-4.75-10.39-8.82-12.33-14.36-7.78-22.3-14.68-44.94-21-67.71-2.13-7.63-5.52-11.53-11.69-13.3a32.37,32.37,0,0,0-6.49-1.09c-21.08-1.65-42.3-4-62.87-8.6-12.5-2.83-19.62.55-27.31,9.44-10.72,12.41-22.07,24.3-33.65,35.94l-4.85,4.85c-12.1,12-20.65,9.35-24-7.64s-6.61-34.29-8.25-51.6c-.87-9.24-4.47-13.71-11.88-17.2h0q-1.29-.6-2.73-1.17c-39.87-15.82-79.24-32.9-119.14-48.67-5.87-2.32-14.17-1.73-20.27.49-7.88,2.87-15.13,7.41-22.64,11.31-2.45,1.27-4.93,2.47-7.47,3.52-4.63,1.92-13.06,3-15.21.58-3.24-3.72-4.17-11.28-3-16.55,2.19-10.23,6.51-20,10.4-31.3-10-6.68-20.15-11.21-27.3-18.62-30.24-31.33-66-34.73-105.43-23.38a49.39,49.39,0,0,1-8,1.56c-3.47.45-7,.67-10.48,1-12.3,1.15-17.42-4.55-15.31-16.7,2.35-13.49,3.46-27.36,7.4-40.37,3.62-11.93,3.17-21.69-1.53-30.77h0a53.57,53.57,0,0,0-10.81-13.83c-17.48-16.74-32.65-36-47.9-54.89-6.46-8-11.92-12-23.25-10-21,3.64-42.4,5.59-63.71,7.61l-6.81.65c-17.38,1.66-21.76-3.54-17.57-20.38,7.35-29.58,16.09-58.86,22.06-88.71,1.68-8.39.59-18.19-2-26.95-.63-2.11-1.34-4.15-2.12-6.1-16.13-40.31-34.47-79.73-50.21-120.18-2.89-7.44,2.55-18.11,4.14-27.29,9.34,2,20.18,1.59,27.73,6.38,22.35,14.18,25.91,38.57,28.21,62.24,3.71,38.19,9.74,75.17,33.64,107.16a61.4,61.4,0,0,0,4.86,5.82h0c4.89,5,10.28,7.84,18.86,8.12,29.27,1,58.48,3.66,87.72,5.57,13.26.88,17.84,6.43,14.18,18.31-.27.88-.58,1.79-.94,2.74-8.62,22.67-17.13,45.46-23.87,68.73-1.92,6.64-.13,17.48,4.36,22.31,17.37,18.67,36.84,35.36,54.82,53.49a26,26,0,0,0,4.08,3.4h0c6,3.92,11.79,3.22,19.18.33,26.07-10.2,52.41-19.73,78.73-29.28,17.48-6.34,24.29-2.58,22.69,13.32-.17,1.7-.44,3.55-.8,5.53-4,22-7.91,44.13-13.07,65.91-3.19,13.43-.91,22,12.51,28.38,19.68,9.31,38.82,19.89,57.58,31a37.57,37.57,0,0,0,5.12,2.55h0c7.61,3,13.48,1.22,20.51-6.1,23.29-24.29,47.4-47.8,71.73-71.05,4.39-4.19,12.58-9.06,16.8-7.54,3.25,1.18,6,5.84,7.76,10.61a37.32,37.32,0,0,1,1.58,5.58c6.77,34.82,12.94,69.76,18.76,104.75,1.82,11,6,16.86,17.94,19.86,5.28,1.32,10.07,2.52,14.42,3.57h.35c41.2,9.91,43.74,6.09,70.76-37.07,7.94-12.67,15.24-25.81,24.1-37.79,3.89-5.26,10.94-8.18,16.56-12.17,3.54,5.31,8.8,10.18,10.31,16,7.8,30.07,14.63,60.38,21.6,89.81,2.06.83,3.18,1.53,4.18,1.78h0a3.45,3.45,0,0,0,.56.1l.9.07h.21l2.57.19c53.1,4,53.58,2.91,75.07-48.43,7.68-18.37,14.91-37,23.28-55,1.83-4,5-8.87,8.32-11.64h0a8.56,8.56,0,0,1,4.33-2.13c4.52-.47,11.42,6.21,14.65,11.38,16.79,27,33.15,54.21,48.75,81.87,4.77,8.47,10.15,11.27,18.43,9.8h.07c.85-.15,1.73-.35,2.64-.59,25.29-6.64,51-11.82,75.87-19.77,8.08-2.58,16.06-10.76,20.46-18.45,9.23-16.14,16.58-33.44,23.71-50.67a31.18,31.18,0,0,1,3.21-6h0c5.31-7.56,12.37-7.35,21.68-1.65,13.29,8.12,26.19,17.16,40.28,23.57a32.52,32.52,0,0,0,20.17,1.62h.07a16.77,16.77,0,0,0,3-1.08c.85-.4,1.68-.79,2.52-1.21l1.36-.63h0c18.27-8.86,35.53-19.86,53.69-29,12.43-6.28,17.78-15.93,20.08-29,3.32-19,8-37.73,11.68-56.65a38.37,38.37,0,0,1,1.81-6.47h0c3.06-7.89,8.8-11.72,19.86-10.27,19.13,2.52,38.63,2.57,57.63,5.75a37.91,37.91,0,0,0,9.69.47l.66-.07a8,8,0,0,0,1.43-.2l.71-.12q.63-.12,1.23-.27l.81-.21.81-.23.68-.21c.69-.24,1.37-.5,2-.79l.44-.19a26.33,26.33,0,0,0,2.79-1.45c.66-.4,1.32-.82,2-1.27h.06l1-.7c.34-.25.67-.52,1-.79s.85-.7,1.27-1.07h0c.43-.38.86-.77,1.28-1.18.62-.6,1.24-1.22,1.87-1.88h0c21.32-22.7,43.61-44.55,63.94-68.09,5.45-6.31,7.6-17.57,7.22-26.38-.76-17.33-4-34.61-6.91-51.79-.77-4.5-.71-8.22.3-11.24,1.73-5.22,6.29-8.32,14.28-9.68,18.41-3.12,36.84-6.46,54.88-11.18,6.35-1.66,13.8-6.37,16.93-11.86,26.56-46.53,52.94-93.24,58.56-148.16.75-7.27,2.36-15.88,6.86-21,5.24-5.93,14.09-8.68,21.38-12.82,2.23,7.51,8.05,16.23,6,22.3a285.6,285.6,0,0,1-23.62,52.63c-12,20.48-13.44,37.48,3.36,56.86,16.23,18.72,29,40.45,43,61.06C2800.5,2834.82,2802.56,2841,2800.72,2845.21Z" fill="none"/>
    <g id="shell-4" data-name="shell">
      <path d="M1241.43,2874.5l-20.18,82.5-6.81.65c-17.38,1.66-21.76-3.54-17.57-20.38,7.35-29.58,16.09-58.86,22.06-88.71,1.68-8.39.59-18.19-2-26.95l22.41,41.55A18.77,18.77,0,0,1,1241.43,2874.5Z" fill="none"/>
      <path d="M1395.87,3068.75l-8.09,44.67-.92,1.56c-3.47.45-7,.67-10.48,1-12.3,1.15-17.42-4.55-15.31-16.7,2.35-13.49,3.46-27.36,7.4-40.37,3.62-11.93,3.17-21.69-1.53-30.77l25.35,30.37A15.49,15.49,0,0,1,1395.87,3068.75Z" fill="none"/>
      <path d="M1548.68,3180.39l-5.76,18.78c-2.45,1.27-4.93,2.47-7.47,3.52-4.63,1.92-13.06,3-15.21.58-3.24-3.72-4.17-11.28-3-16.55,2.19-10.23,6.51-20,10.4-31.3l15.3,12.68A16,16,0,0,1,1548.68,3180.39Z" fill="none"/>
      <path d="M1756.76,3308.82l-4.85,4.85c-12.1,12-20.65,9.35-24-7.64s-6.61-34.29-8.25-51.6c-.87-9.24-4.47-13.71-11.88-17.2l36.22,15.55a11.94,11.94,0,0,1,6.86,8Z" fill="none"/>
      <path d="M2665.7,3027.84a19.42,19.42,0,0,1-4,9.43c-2.13,2.39-11.59.33-16.47-2.2-22.57-11.71-44.68-24.28-65.35-35.66l12.09-6.76S2654.41,3033.81,2665.7,3027.84Z" fill="none"/>
      <path d="M2800.72,2845.21c-1.9,4.33-7.92,6.59-18.26,7.17-29.88,1.67-59.79,2.61-89.69,4-3.35.16-8.06-.34-10.78.53l11.18-7.17S2785.21,2849.7,2800.72,2845.21Z" fill="none"/>
      <path d="M1383.94,2881.62c-3.84-8.77-85.9-6.36-100.51-11.58-12-8.34-20.26-20.42-20.26-20.42h0c4.89,5,10.28,7.84,18.86,8.12,29.27,1,58.48,3.66,87.72,5.57C1383,2864.19,1387.6,2869.74,1383.94,2881.62Z" fill="none"/>
      <path d="M1543,3016.67c-10.18-9.36-80.09,25-93.65,29.72-13.38,4.63-26.59-13.58-26.95-14.09,6,3.92,11.79,3.22,19.18.33,26.07-10.2,52.41-19.73,78.73-29.28C1537.79,2997,1544.6,3000.77,1543,3016.67Z" fill="none"/>
      <path d="M1917.55,3228.58c2.06.83,3.18,1.53,4.18,1.78-15-2-15.79-9.54-15.79-9.54s-12.11-58.9-16-77.39c-4.7-22.43-14.35-5.14-14.35-5.14s-37.72,69.95-48.52,74.54c-16.42,7-49.93-2.2-53-3.07,41.32,9.95,43.83,6.16,70.88-37,7.94-12.67,15.24-25.81,24.1-37.79,3.89-5.26,10.94-8.18,16.56-12.17,3.54,5.31,8.8,10.18,10.31,16C1903.75,3168.84,1910.58,3199.15,1917.55,3228.58Z" fill="none"/>
      <path d="M2118.85,3216.59c-20.54,4-27.76-7.42-27.76-7.42s-36-60-42.79-74.08-15.63-19.4-15.63-19.4h0a8.56,8.56,0,0,1,4.33-2.13c4.52-.47,11.42,6.21,14.65,11.38,16.79,27,33.15,54.21,48.75,81.87C2105.19,3215.26,2110.57,3218.06,2118.85,3216.59Z" fill="none"/>
      <path d="M2326.94,3144.6c-8.19,3.05-21.37,6.68-27.6,1.33-43.38-32.76-54.53-24.86-54.53-24.86h0c5.31-7.56,12.37-7.35,21.68-1.65,13.29,8.12,26.19,17.16,40.28,23.57A32.52,32.52,0,0,0,2326.94,3144.6Z" fill="none"/>
      <path d="M2528.5,3005.66c-.46.64-16.54,22.71-28.37,18.82-71-13.57-78.89-4-78.89-4h0c3.06-7.89,8.8-11.72,19.86-10.27,19.13,2.52,38.63,2.57,57.63,5.75C2511.45,3018.06,2520.23,3014.47,2528.5,3005.66Z" fill="none"/>
      <path d="M2679.15,2815.43c-10.63,21-18.85,20.18-18.85,20.18l-67.24,12.54c1.73-5.22,6.29-8.32,14.28-9.68,18.41-3.12,36.84-6.46,54.88-11.18C2668.57,2825.63,2676,2820.92,2679.15,2815.43Z" fill="none"/>
      <path d="M1721.17,3075.94c-14.08-7.75-84.52,73.49-91.56,79.48-6.87,5.84-24.37-4.87-25.24-5.4,7.61,3,13.48,1.22,20.51-6.1,23.29-24.29,47.4-47.8,71.73-71.05,4.39-4.19,12.58-9.06,16.8-7.54C1716.66,3066.51,1719.43,3071.17,1721.17,3075.94Z" fill="none"/>
      <path d="M1944.7,3354.65c-1.92,5.42-8.26,9.27-12.58,13.85-4.22-4.75-10.39-8.82-12.33-14.36-7.78-22.3-14.68-44.94-21-67.71-2.13-7.63-5.52-11.53-11.69-13.3h0l16.18,3.1c3.31,1.8,14.87-.52,21.47,22Z" fill="none"/>
      <path d="M2182.43,3330.59c-6.21,9.88-12.59,8.61-24.63-2.55-18.29-16.95-36.8-33.68-54.55-51.18-5.89-5.8-11.31-9-18.78-9.48l12.15-.63c6.65-.67,11.16-.24,18.07,5.6,2.07,1.75,8.57,7.69,10.09,9Z" fill="none"/>
      <path d="M2438.37,3251.77c-4,9.48-10.9,8.63-25-.88-25.85-17.39-51.83-34.62-77.2-52.7-5.84-4.16-10.65-5.34-16.2-4.18,1.09-.52,16.79-7.67,24.58-2.66l93.85,60.42Z" fill="none"/>
    </g>
  </g>
  <g id="mouth5">
    <path d="M1377.22,2842.54c58.33,77.52,129.77,135.19,212,180.29,4.76,2.61,8.63,11.24,8.75,17.16.78,38.39.4,76.8.4,116.9l144.15,21v-89.15l184.22,33.3c-1.63,22.69-3.44,47.94-5.36,74.84l123.39,30.45c5-36.84,9.7-71.94,14.26-105.71l156.6-23.67c2.95,28.49,6,57.6,9.23,89.15L2326.53,3153c-2.77-26.44-5.17-51.84-8.24-77.16-1-8.09-.39-13.35,8.5-16.87,82.2-32.48,157-77,225.07-140.62,2,87.13-12.38,167.48-47,243.79C2447.29,3289,2349.48,3373,2220.8,3426.54l-12.8-91.75-117.75,14.94c3.35,37.55,6.59,73.89,9.94,111.36-74.5,15.13-147.51,14.5-223.51,8,6.25-34.45,12.16-67.08,18.35-101.21l-129.9-48.39c-7.07,40.57-13.82,79.31-20.58,118.05C1498.13,3374,1320.87,3124,1377.22,2842.54Z" fill="none"/>
    <g id="shell-5" data-name="shell">
      <path d="M2504.81,3162.19C2429,3306,2249.54,3382,2249.54,3382l-10.95-76.24-123.45,15.09-24.88,28.9,5.71,64.05-170.33,12.77,9.59-84.15-140.49-48.18-29.6,25.28L1752.5,3392s-103.35-19.91-225-134.17S1406,2878.05,1406,2878.05l-28.82-35.51s-51.83,204.12,73.28,384.83,294.06,210.18,294.06,210.18l20.58-118.05,129.9,48.39-18.35,101.21s143.92,14.08,223.51-8c-3.31-37-9.94-111.36-9.94-111.36L2208,3334.79l12.74,91.79S2423.67,3355.73,2504.81,3162.19Z" fill="none"/>
      <polygon points="1742.51 3177.93 1783.3 3157.99 1783.3 3096.15 1742.51 3088.78 1742.51 3177.93" fill="none"/>
      <polygon points="2044.75 3227.37 2084.44 3203.43 2095.97 3116.07 2059.01 3121.66 2044.75 3227.37" fill="none"/>
      <path d="M2326.51,3153.05l17.79-16.67-6.38-81.86s-3.15.86-12.47,5.07c-3.22,1.57-8.91,3.56-7.18,16.3C2320.58,3096,2326.51,3153.05,2326.51,3153.05Z" fill="none"/>
    </g>
  </g>
  <g id="mouth6">
    <path d="M2632.14,2900.79c-2.1,24.74-4.81,50.38-13.21,73.47-25.33,69.54-63.35,131.79-106.87,190.57v.05c-12.68,17.15-25.85,34-39.31,50.65-21,26-44.66,50.06-67.92,74.21-9.23,9.58-20.15,17.8-31.24,25.27-23.6,15.89-31.52,12.94-40.15-13.38-9.79-29.87-26.77-38.43-56.84-28.67-27.58,8.95-37.82,16.83-38.16,36.51h0c-.11,6.38.82,14,2.54,23.3l.15.83c1.65,8.83,3.2,17.7,5.17,26.46v.06q.9,4,1.93,7.93c4.17,15.86.26,25.73-15.75,33.31-104.88,49.66-215.09,74.27-319.38,73.25-86.1-2.55-158.34-15.57-227.63-43.32-23.67-9.47-31.86-20.7-30.44-46.05,1.1-19.47,5.43-38.76,6.62-58.23,1.64-26.79-6.79-37.21-33.18-44a200.73,200.73,0,0,0-26.26-5.26c-13.11-1.52-22.79.13-30.64,5.67h0a41.79,41.79,0,0,0-10.6,11.34,77.71,77.71,0,0,0-4.66,8.06c-12.65,25-36.12,29.33-53.6,8.08-69.78-84.83-123.45-178.11-144.8-287.34-2.75-14.07-2.8-29-1.73-43.42,1.55-21,10.29-37.4,23-47.49h0c18.23-14.35,44.64-15.83,70,.47,50.68,32.55,103.83,59.65,161.7,76.17,37,10.55,74.76,18.54,112.5,26.06,31,6.18,39.7,15.64,39.19,47.24a175.05,175.05,0,0,0,2.56,31.59c2.67,15.87,12.91,27.22,28.07,30,17.34,3.18,35.43,3.48,53.14,3a26.63,26.63,0,0,0,7.09-1.12c9.13-2.8,15.12-10.6,16.67-21.08,2-13.18,2.29-26.63,2.83-40,.89-22.07,13.51-35.26,35.21-36.8q64.41-4.58,128.8-9.56c31.09-2.43,44.18,9.24,45.23,40.94,1.49,44.83,8,51,52.67,49.38,11.7-.41,21.42-2.22,29.3-5.58l.25-.11c18.79-8.12,27.07-25.14,26.87-53.19,0-3.35-.15-6.72-.43-10.06-3.57-42.63.8-49.09,41.21-60.51a1317.41,1317.41,0,0,0,310.5-132.7c19.9-11.69,40-16.53,62.11-6.43a66.17,66.17,0,0,1,7.91,4.26C2625.57,2872.93,2633.48,2885,2632.14,2900.79Z" fill="none"/>
    <g id="shell-6" data-name="shell">
      <path d="M1908.21,3048.3c-12.77.91-11,46.35-12.28,64S1887,3131,1887,3131l-33.55,15.75v-.62c9.13-2.8,15.12-10.6,16.67-21.08,2-13.18,2.29-26.63,2.83-40C1873.89,3063,1886.51,3049.84,1908.21,3048.3Z" fill="none"/>
      <path d="M2216.57,3088.78c-3.53,15.26-15.27,18.79-15.27,18.79l-36.84,15.8c18.79-8.12,27.07-25.14,26.87-53.19,0-3.35-.15-6.72-.43-10.06-3.57-42.63.8-49.09,41.21-60.51C2204.05,3007.87,2220.09,3073.52,2216.57,3088.78Z" fill="none"/>
      <path d="M1560.93,3294.86a77.71,77.71,0,0,0-4.66,8.06c-12.65,25-36.12,29.33-53.6,8.08-69.78-84.83-123.45-178.11-144.8-287.34-2.75-14.07-2.8-29-1.73-43.42C1356.14,2980.24,1444.51,3270.46,1560.93,3294.86Z" fill="none"/>
      <path d="M2241.08,3333.63c1.65,8.83,3.2,17.7,5.17,26.46-2.31-9.44-4.06-18.83-5.32-27.29Z" fill="none"/>
      <path d="M2248.2,3368.08c4.17,15.86.26,25.73-15.75,33.31-104.88,49.66-215.09,74.27-319.38,73.25-86.1-2.55-158.34-15.57-227.63-43.32-23.67-9.47-31.86-20.7-30.44-46.05,1.1-19.47,5.43-38.76,6.62-58.23,1.64-26.79-6.79-37.21-33.18-43.95a199.1,199.1,0,0,0-26.26-5.26c-13.11-1.52-22.79.13-30.64,5.67.69-1,25.8-36.11,55.42-26.85,30,9.39,75.43,4.7,67.61,67.31s-2.61,65.74,15.91,70.43,245.42,109.94,535.79-34.24Q2247.17,3364.14,2248.2,3368.08Z" fill="none"/>
      <path d="M2512,3164.88c-12.68,17.15-25.85,34-39.31,50.65-21,26-44.66,50.06-67.92,74.21-9.23,9.58-20.15,17.8-31.24,25.27-23.6,15.89-31.52,12.94-40.15-13.38-9.79-29.87-26.77-38.43-56.84-28.67-27.58,8.95-37.82,16.83-38.16,36.51,0,0-2.46-53,64-65.34,33.91-7.83,50.08,25.37,50.08,25.37S2382.58,3320.31,2512,3164.88Z" fill="none"/>
    </g>
  </g>
</svg>
